<svg width="500" height="500" viewBox="0 0 500 500" fill="none" xmlns="http://www.w3.org/2000/svg">
<path d="M54.001 34.9097V413.878C54.001 416.437 56.3307 418.767 58.8896 418.767H272.157C287.816 442.274 310.178 460.454 340.901 469.809C341.321 469.943 341.78 470 342.219 470C342.715 470 343.193 469.943 343.651 469.809C383.333 457.74 409.135 430.891 424.465 396.919C439.796 362.948 445.09 321.966 445.09 280.164C445.109 278.216 443.848 276.306 442.034 275.58L344.11 235.23C343.422 234.963 342.697 234.867 341.971 234.924V106.558C342.009 105.26 341.494 103.98 340.596 103.045L268.488 31.3769C267.553 30.4794 266.273 29.9638 264.975 30.002H58.8887C55.6423 30.002 54 32.8473 54 34.8906L54.001 34.9097ZM63.7783 39.7984H260.087V106.577C260.087 109.136 262.417 111.466 264.976 111.466H332.195V238.61L254.279 270.692H253.974H172.24H171.782C169.223 270.806 167.008 273.251 167.123 275.81C167.237 278.369 169.681 280.584 172.241 280.469H239.459C239.479 303.404 241.121 326.148 245.112 347.556H172.241H171.783C169.224 347.671 167.009 350.115 167.124 352.674C167.238 355.233 169.683 357.448 172.242 357.334H247.097C250.248 371.274 254.506 384.527 260.082 396.901C261.953 401.045 264.016 405.056 266.193 408.97H63.7732L63.7783 39.7984ZM269.864 46.5202L325.321 101.689H269.864V46.5202ZM145.966 163.124C144.744 163.258 143.56 163.869 142.758 164.805L115.259 196.734L103.496 185.123C101.778 182.984 98.1687 182.793 96.2397 184.741C94.3109 186.67 94.5019 190.298 96.6216 191.998L112.051 207.427C113.961 209.318 117.494 209.184 119.232 207.122L150.244 171.221C152.86 168.261 149.881 162.628 145.966 163.124ZM171.784 193.831C169.225 193.946 167.01 196.39 167.125 198.949C167.239 201.508 169.684 203.723 172.243 203.608H295.984C298.562 203.647 300.949 201.298 300.949 198.72C300.949 196.142 298.581 193.793 295.984 193.831H172.243L171.784 193.831ZM146.882 239.834C146.424 239.834 145.947 239.891 145.507 239.987C144.438 240.216 143.445 240.827 142.758 241.667L115.411 273.596L103.495 261.833C101.643 260.057 98.3584 260.114 96.5824 261.948C94.7873 263.781 94.8064 267.066 96.6396 268.88L112.069 284.157C113.941 286.086 117.474 286.009 119.25 284.004L150.262 248.103C152.84 245.391 150.625 239.987 146.901 239.853L146.882 239.834ZM342.277 245.028L435.161 283.221C434.894 323.094 429.7 361.708 415.607 392.927C401.342 424.531 378.388 448.423 342.277 459.858C306.166 448.419 283.364 424.529 269.099 392.927C255.006 361.705 249.659 323.073 249.392 283.221L342.277 245.028ZM388.414 311.656C387.191 311.789 386.007 312.401 385.205 313.336L331.89 371.101L309.738 348.338C308.02 346.199 304.411 346.008 302.482 347.956C300.553 349.885 300.744 353.513 302.864 355.213L328.529 381.489C330.362 383.456 333.876 383.456 335.709 381.489L392.388 319.902C395.119 317.038 392.347 311.293 388.414 311.656ZM146.885 316.697C146.427 316.697 145.949 316.754 145.51 316.85C144.441 317.079 143.448 317.69 142.76 318.53L115.414 350.459L103.498 338.696C101.665 336.901 98.3418 336.939 96.5467 338.772C94.7516 340.606 94.7898 343.928 96.6231 345.723L112.053 361.001C113.962 362.891 117.495 362.757 119.233 360.695L150.246 324.947C152.824 322.235 150.609 316.83 146.885 316.697Z" fill="#FFFF98"/>
</svg>
