<svg width="500" height="500" viewBox="0 0 500 500" fill="none" xmlns="http://www.w3.org/2000/svg">
<path d="M249.825 205.116C268.805 205.116 284.251 189.67 284.251 170.683C284.251 151.695 268.805 136.256 249.825 136.256C230.844 136.256 215.398 151.702 215.398 170.69C215.398 189.678 230.844 205.116 249.825 205.116ZM249.825 147.536C262.586 147.536 272.971 157.921 272.971 170.69C272.971 183.459 262.586 193.836 249.825 193.836C237.063 193.836 226.678 183.451 226.678 170.683C226.678 157.914 237.063 147.536 249.825 147.536Z" fill="#FFFF98"/>
<path d="M411.13 464.305L353.211 338.715H396.661C399.775 338.715 402.301 336.188 402.301 333.075C402.301 329.962 399.775 327.435 396.661 327.435H348.008L302.354 228.443C318.078 214.133 328.02 193.573 328.02 170.69C328.02 129.481 295.947 95.6867 255.468 92.784V33.6399C255.468 30.5267 252.941 28 249.828 28C246.714 28 244.188 30.5267 244.188 33.6399V92.7765C203.7 95.6867 171.636 129.474 171.636 170.683C171.636 193.566 181.577 214.118 197.294 228.428L151.64 327.428H102.994C99.8806 327.428 97.3539 329.954 97.3539 333.068C97.3539 336.181 99.8806 338.708 102.994 338.708H146.436L88.518 464.29C87.2171 467.125 88.4504 470.471 91.2778 471.772C92.0449 472.126 92.842 472.291 93.6316 472.291C95.7672 472.291 97.8051 471.081 98.7602 469.013L158.852 338.7H340.788L400.888 469.02C401.835 471.081 403.873 472.299 406.009 472.299C406.798 472.299 407.603 472.133 408.37 471.78C411.205 470.487 412.438 467.133 411.13 464.305ZM182.915 170.69C182.915 133.79 212.935 103.778 249.828 103.778C286.72 103.778 316.74 133.798 316.74 170.69C316.74 207.583 286.72 237.602 249.828 237.602C212.927 237.602 182.915 207.583 182.915 170.69ZM164.063 327.428L206.385 235.655C218.815 243.994 233.765 248.882 249.828 248.882C265.89 248.882 280.84 244.002 293.27 235.655L335.592 327.428H164.063Z" fill="#FFFF98"/>
</svg>
