<svg width="500" height="500" viewBox="0 0 500 500" fill="none" xmlns="http://www.w3.org/2000/svg">
<path d="M134.882 379.968H83.0459V472.364H297.558L406.322 421.114C418.563 415.353 421.148 399.919 414.025 387.962C407.22 376.859 390.915 370.662 370.964 379.477L294.622 413.204H225.632C217.337 413.204 216.008 409.805 216.008 407.589C216.008 405.378 217.337 401.979 225.632 401.979H261.358C275.001 401.979 286.623 391.311 286.623 377.646C286.623 363.925 275.14 352.906 261.358 352.906H168.347L134.882 379.968ZM172.802 365.555H261.358C268.536 365.555 273.979 370.93 273.979 377.651C273.979 384.333 268.687 389.34 261.358 389.34H225.632C212.636 389.34 203.303 397.864 203.303 407.594C203.303 417.341 212.636 425.881 225.632 425.881H297.296L376.088 391.06C392.199 383.959 399.69 388.699 403.268 394.571C406.612 401.203 405.914 406.785 400.94 409.665L294.711 459.721H142.937V389.742L172.802 365.555ZM95.7286 392.617H130.294V459.721H95.7286V392.617Z" fill="#FFFF98"/>
<path d="M250.511 28L77 184.245H147.938L250.511 94.1154L353.089 184.245H424L250.511 28ZM250.511 45.0368L390.998 171.596H357.851L250.511 77.2796L143.177 171.596H110.002L250.511 45.0368Z" fill="#FFFF98"/>
<path d="M139.222 203.409V321.617H361.817V203.409H349.134V308.94H151.927V203.409H139.222Z" fill="#FFFF98"/>
<path d="M244.09 176.369C231.994 178.836 221.471 190.118 222.37 202.851C222.627 211.955 229.03 220.206 237.542 223.231C245.832 226.424 255.428 226.374 262.78 231.778C266.151 234.77 266.38 240.09 265.37 244.193C262.461 250.534 254.607 252.214 248.271 252.075C242.427 251.868 236.727 250.071 231.553 247.363L225.703 258.583C231.436 261.548 237.66 263.641 244.079 264.428V278.495H256.751V263.959C267.452 262.217 278.013 253.816 278.499 242.362C279.141 232.007 273.263 221.311 263.382 217.504C256.399 214.222 248.495 213.809 241.316 211.051C235.879 209.192 233.551 202.678 235.706 197.559C239.284 188.985 250.421 186.104 258.582 188.951C262.545 190.347 265.275 191.86 268.233 194.684C270.796 191.804 274.078 188.142 276.668 185.289C271.147 180.316 264.192 176.682 256.751 175.816V161.621H244.09V176.369Z" fill="#FFFF98"/>
</svg>
