<svg width="500" height="500" viewBox="0 0 500 500" fill="none" xmlns="http://www.w3.org/2000/svg">
<path fill-rule="evenodd" clip-rule="evenodd" d="M136.107 201.976H206.925V157.774H136.107V201.976ZM165.247 150.13V105.927H94.429V150.13H165.247ZM86.7857 150.13V102.106C86.7857 99.9966 88.4975 98.2851 90.6073 98.2851H169.069C171.178 98.2851 172.891 99.9966 172.891 102.106V150.13H210.749C212.859 150.13 214.571 151.842 214.571 153.951V201.975H247.532C249.642 201.975 251.354 203.686 251.354 205.796V253.821H446.178C448.288 253.821 450 255.532 450 257.641V309.488C450 311.598 448.288 313.308 446.178 313.308H408.32V357.511H446.178C448.288 357.511 450 359.223 450 361.333V413.179C450 415.288 448.288 417 446.178 417H291.681C291.243 417 290.845 416.92 290.447 416.801V416.821H290.307L290.287 416.861H289.83L289.81 416.96H289.273L210.77 417H53.8217C51.7118 417 50 415.288 50 413.179V361.333C50 359.223 51.7118 357.511 53.8217 357.511H86.7838V313.308H53.8217C51.7118 313.308 50 311.598 50 309.488V257.641C50 255.532 51.7118 253.821 53.8217 253.821H86.7838V209.618H53.8217C51.7118 209.618 50 207.906 50 205.796V153.95C50 151.841 51.7118 150.129 53.8217 150.129L86.7857 150.13ZM345.844 149.234L317.241 136.617C316.525 136.298 315.847 136.139 315.191 136.139C314.514 136.139 313.817 136.278 313.121 136.557C312.404 136.836 311.827 137.233 311.349 137.711C310.872 138.188 310.513 138.786 310.235 139.502L276.198 226.075C275.78 227.15 275.681 228.225 275.86 229.22C276.058 230.175 276.557 231.091 277.333 231.867C278.128 232.663 279.044 233.161 280 233.36V233.34C280.995 233.539 282.03 233.439 283.045 233.021L368.834 197.794C369.531 197.515 370.108 197.137 370.586 196.66C371.043 196.202 371.422 195.625 371.7 194.928C371.999 194.232 372.138 193.555 372.138 192.899C372.138 192.221 371.979 191.545 371.7 190.869L360.196 163.065L352.572 170.688C350.622 172.619 348.073 173.593 345.546 173.593C342.998 173.593 340.45 172.619 338.5 170.688C336.569 168.757 335.593 166.21 335.593 163.642C335.573 161.214 336.469 158.786 338.241 156.876L338.48 156.597L345.844 149.234ZM365.987 157.255L369.809 153.434C371.302 154.509 373.392 154.369 374.746 153.036L420.944 112.237L421.641 111.6L421.879 111.361C424.825 108.296 426.218 104.276 426.198 100.236C426.159 96.1755 424.686 92.0357 421.859 88.8315L421.143 88.0553L420.367 87.3389L420.088 87.12C416.923 84.4332 412.903 83.0201 408.942 83.0002C404.802 82.9803 400.681 84.4531 397.576 87.5578L396.919 88.2345L355.996 134.607C354.801 135.96 354.742 137.93 355.737 139.344L351.637 143.443L320.327 129.631C318.694 128.915 317.003 128.536 315.271 128.516C313.559 128.496 311.868 128.835 310.195 129.512C308.523 130.188 307.09 131.163 305.896 132.378C304.702 133.591 303.766 135.045 303.109 136.737L269.072 223.309C268.117 225.738 267.898 228.285 268.376 230.713H268.356C268.833 233.141 270.027 235.41 271.899 237.261C273.75 239.112 276.039 240.326 278.487 240.804V240.824C280.916 241.301 283.463 241.062 285.932 240.067L371.7 204.84C373.332 204.164 374.746 203.248 375.92 202.074C377.114 200.9 378.03 199.487 378.707 197.874C379.383 196.263 379.722 194.61 379.742 192.939C379.742 191.287 379.403 189.635 378.727 188.003L365.987 157.255ZM361.091 144.797L343.734 162.151C343.376 162.589 343.177 163.126 343.177 163.663C343.158 164.24 343.396 164.838 343.854 165.296C344.312 165.753 344.889 165.972 345.486 165.972C346.083 165.972 346.68 165.753 347.118 165.315L364.355 148.08L361.091 144.797ZM368.137 141.035L372.197 145.095L415.888 106.525L416.406 106.027C417.878 104.455 418.575 102.385 418.555 100.256C418.535 97.9868 417.699 95.6781 416.127 93.867L415.112 92.8719C413.34 91.3992 411.111 90.6032 408.922 90.6032C406.712 90.5832 404.563 91.3395 402.99 92.9118C389.893 107.421 377.034 122.287 364.077 136.955L368.137 141.035ZM57.6439 409.355H128.462V365.152H57.6439V409.355ZM371.541 409.355H442.359V365.152H371.541V409.355ZM293.059 409.355H363.878V365.152H293.059V409.355ZM285.416 409.355V365.152H214.597V409.355H285.416ZM136.111 409.355H206.928V365.152H136.111V409.355ZM329.844 357.509H400.662V313.306H329.844V357.509ZM251.382 357.509H322.201V313.306H251.382V357.509ZM243.739 357.509V313.306H172.921V357.509H243.739ZM94.4339 357.509H165.252V313.306H94.4339V357.509ZM57.6501 305.662H128.468V261.46H57.6501V305.662ZM371.547 305.662H442.365V261.46H371.547V305.662ZM293.065 305.662H363.883V261.46H293.065V305.662ZM285.422 305.662V261.46H214.603V305.662H285.422ZM136.117 305.662H206.935V261.46H136.117V305.662ZM243.74 253.816V209.614H172.922V253.816H243.74ZM94.4349 253.816H165.253V209.614H94.4349V253.816ZM57.6511 201.971H128.469V157.768H57.6511V201.971Z" fill="#FFFF98"/>
</svg>
