<svg width="500" height="500" viewBox="0 0 500 500" fill="none" xmlns="http://www.w3.org/2000/svg">
<path fill-rule="evenodd" clip-rule="evenodd" d="M113.328 192.843H198.31V139.773H113.328V192.843ZM148.297 130.596V77.5266H63.3148V130.596H148.297ZM54.1428 130.596V72.9389C54.1428 70.4061 56.197 68.3512 58.7288 68.3512H152.883C155.414 68.3512 157.469 70.4061 157.469 72.9389V130.596H202.899C205.431 130.596 207.485 132.651 207.485 135.184V192.841H247.039C249.571 192.841 251.625 194.896 251.625 197.429V255.087H485.414C487.946 255.087 490 257.142 490 259.674V321.921C490 324.454 487.946 326.508 485.414 326.508H439.984V379.578H485.414C487.946 379.578 490 381.633 490 384.166V446.412C490 448.945 487.946 451 485.414 451H300.017C299.492 451 299.014 450.904 298.536 450.761V450.785H298.369L298.345 450.833H297.796L297.772 450.952H297.127L202.924 451H14.586C12.0542 451 10 448.945 10 446.412V384.166C10 381.633 12.0542 379.578 14.586 379.578H54.1406V326.508H14.586C12.0542 326.508 10 324.454 10 321.921V259.674C10 257.142 12.0542 255.087 14.586 255.087H54.1406V202.017H14.586C12.0542 202.017 10 199.962 10 197.429V135.183C10 132.65 12.0542 130.595 14.586 130.595L54.1428 130.596ZM365.013 129.521L330.689 114.372C329.83 113.989 329.017 113.798 328.229 113.798C327.417 113.798 326.581 113.966 325.745 114.3C324.885 114.635 324.193 115.112 323.619 115.686C323.046 116.259 322.616 116.976 322.282 117.836L281.438 221.776C280.936 223.066 280.817 224.357 281.032 225.551C281.27 226.698 281.868 227.798 282.799 228.729C283.754 229.685 284.853 230.283 286 230.522V230.498C287.194 230.737 288.436 230.617 289.654 230.115L392.601 187.822C393.437 187.487 394.13 187.033 394.703 186.46C395.252 185.91 395.706 185.217 396.04 184.381C396.399 183.545 396.566 182.732 396.566 181.944C396.566 181.131 396.375 180.319 396.04 179.507L382.235 146.126L373.086 155.278C370.746 157.596 367.688 158.766 364.655 158.766C361.598 158.766 358.54 157.596 356.2 155.278C353.883 152.96 352.712 149.902 352.712 146.819C352.688 143.904 353.763 140.989 355.889 138.695L356.176 138.361L365.013 129.521ZM389.185 139.15L393.771 134.563C395.562 135.853 398.07 135.686 399.695 134.085L455.133 85.1013L455.969 84.3366L456.255 84.0499C459.79 80.3702 461.462 75.5436 461.438 70.6929C461.391 65.8184 459.623 60.8482 456.231 57.0012L455.372 56.0694L454.44 55.2092L454.106 54.9464C450.308 51.7206 445.483 50.0241 440.73 50.0002C435.762 49.9763 430.817 51.7446 427.091 55.4721L426.303 56.2845L377.195 111.959C375.761 113.584 375.69 115.949 376.884 117.646L371.964 122.568L334.392 105.985C332.433 105.125 330.403 104.671 328.325 104.647C326.271 104.623 324.241 105.03 322.234 105.842C320.228 106.654 318.508 107.825 317.075 109.283C315.642 110.74 314.519 112.485 313.731 114.516L272.887 218.455C271.74 221.371 271.478 224.429 272.051 227.344H272.027C272.6 230.259 274.033 232.983 276.279 235.206C278.5 237.428 281.247 238.885 284.185 239.459V239.483C287.099 240.056 290.156 239.769 293.118 238.575L396.04 196.281C397.999 195.469 399.695 194.37 401.104 192.96C402.537 191.55 403.636 189.854 404.448 187.918C405.26 185.983 405.666 183.999 405.69 181.992C405.69 180.009 405.284 178.026 404.472 176.066L389.185 139.15ZM383.309 124.193L362.481 145.028C362.051 145.554 361.812 146.199 361.812 146.844C361.789 147.537 362.075 148.254 362.625 148.804C363.174 149.353 363.867 149.616 364.583 149.616C365.3 149.616 366.016 149.353 366.542 148.827L387.226 128.135L383.309 124.193ZM391.764 119.677L396.637 124.551L449.066 78.2437L449.687 77.6463C451.454 75.7587 452.29 73.2737 452.266 70.717C452.242 67.9931 451.239 65.2213 449.352 63.0469L448.134 61.8522C446.008 60.084 443.333 59.1283 440.706 59.1283C438.055 59.1044 435.475 60.0124 433.588 61.9C417.871 79.3193 402.441 97.168 386.892 114.778L391.764 119.677ZM19.1727 441.821H104.155V388.751H19.1727V441.821ZM395.849 441.821H480.831V388.751H395.849V441.821ZM301.671 441.821H386.653V388.751H301.671V441.821ZM292.499 441.821V388.751H207.517V441.821H292.499ZM113.333 441.821H198.314V388.751H113.333V441.821ZM345.813 379.575H430.794V326.505H345.813V379.575ZM251.659 379.575H336.641V326.505H251.659V379.575ZM242.487 379.575V326.505H157.505V379.575H242.487ZM63.3207 379.575H148.302V326.505H63.3207V379.575ZM19.1801 317.328H104.162V264.259H19.1801V317.328ZM395.856 317.328H480.838V264.259H395.856V317.328ZM301.678 317.328H386.66V264.259H301.678V317.328ZM292.506 317.328V264.259H207.524V317.328H292.506ZM113.34 317.328H198.322V264.259H113.34V317.328ZM242.488 255.082V202.012H157.506V255.082H242.488ZM63.3219 255.082H148.304V202.012H63.3219V255.082ZM19.1813 192.836H104.163V139.766H19.1813V192.836Z" fill="#FFFF98"/>
</svg>
