<svg width="500" height="500" viewBox="0 0 500 500" fill="none" xmlns="http://www.w3.org/2000/svg">
<path d="M291.373 231.316L330.654 344.376L344.556 339.521L305.202 226.461C307.409 223.886 308.807 220.576 308.807 216.898C308.807 208.806 302.186 202.186 294.095 202.186C291.079 202.186 288.357 203.069 286.003 204.614L209.134 166.142L202.587 179.309L279.53 217.781C279.971 224.548 284.9 230.065 291.373 231.316Z" fill="#FFFF98"/>
<path d="M349.765 354.204L335.871 359.04L343.56 381.132L357.454 376.296L349.765 354.204Z" fill="#FFFF98"/>
<path d="M248.335 38.2609L234.669 43.7078L243.193 65.0957L256.86 59.6489L248.335 38.2609Z" fill="#FFFF98"/>
<path d="M221.934 63.895L215.607 50.5808C151.611 80.8872 110.271 146.134 110.271 216.898C110.271 224.328 110.712 231.757 111.668 238.966L126.233 237.127C125.424 230.58 124.982 223.813 124.982 216.972C124.982 192.845 130.205 169.379 139.841 148.047L158.452 157.389L164.999 144.222L146.388 134.953C163.307 104.573 189.42 79.4161 221.86 64.0422L221.934 63.895Z" fill="#FFFF98"/>
<path d="M294.172 33H293.437L294.172 47.7119C387.445 47.7119 463.359 123.625 463.359 216.898C463.359 238.451 459.166 259.342 451.589 278.688L435.553 270.964L429.153 284.205L445.631 292.149C430.33 323.044 405.688 349.011 374.131 366.003L381.119 378.949C440.923 346.804 477.997 284.72 477.997 216.898C477.997 115.46 395.537 33 294.099 33H294.172Z" fill="#FFFF98"/>
<path d="M29.3559 467H235.322C239.368 467 242.678 463.69 242.678 459.644V356.661C242.678 354.528 241.722 352.468 240.103 351.071L137.12 262.799C134.399 260.445 130.279 260.445 127.558 262.799L24.5746 351.071C22.9563 352.468 22 354.528 22 356.661V459.644C22 463.69 25.3102 467 29.3559 467ZM161.763 452.288H102.915V378.729H161.763V452.288ZM36.7119 360.045L132.339 278.1L227.966 360.045V452.288H176.475V371.373C176.475 367.327 173.164 364.017 169.119 364.017H95.5593C91.5136 364.017 88.2034 367.327 88.2034 371.373V452.288H36.7119V360.045Z" fill="#FFFF98"/>
</svg>
