<svg width="95" height="117" viewBox="0 0 95 117" fill="none" xmlns="http://www.w3.org/2000/svg">
<path d="M91.0714 88.1099C91.8839 88.9224 91.8839 90.2349 91.0714 91.0474C90.6534 91.4653 90.1339 91.6528 89.5909 91.6528C89.0479 91.6528 88.5284 91.4458 88.1104 91.0474L45.8404 48.7774L3.57037 91.0704C3.1524 91.4883 2.63287 91.6758 2.08987 91.6758C1.54687 91.6758 1.02738 91.4688 0.609375 91.0704C-0.203125 90.2579 -0.203125 88.9454 0.609375 88.1329L42.8794 45.8629L0.609375 3.56988C-0.203125 2.75738 -0.203125 1.44488 0.609375 0.632375C1.42188 -0.180125 2.73438 -0.180125 3.54688 0.632375L45.8169 42.9024L88.1099 0.609375C88.9224 -0.203125 90.2349 -0.203125 91.0474 0.609375C91.8599 1.42188 91.8599 2.73438 91.0474 3.54688L48.7774 45.8169L91.0714 88.1099Z" fill="white"/>
<path d="M21.376 103.568C20.768 102.896 20.048 102.368 19.216 101.984C18.384 101.6 17.544 101.408 16.696 101.408C15.864 101.408 15.08 101.568 14.344 101.888C13.624 102.192 12.984 102.624 12.424 103.184C11.88 103.744 11.456 104.4 11.152 105.152C10.848 105.888 10.696 106.688 10.696 107.552C10.696 108.4 10.848 109.2 11.152 109.952C11.456 110.688 11.88 111.336 12.424 111.896C12.984 112.456 13.624 112.896 14.344 113.216C15.08 113.536 15.864 113.696 16.696 113.696C17.544 113.696 18.376 113.52 19.192 113.168C20.008 112.8 20.736 112.304 21.376 111.68L23.056 113.432C22.496 113.992 21.856 114.48 21.136 114.896C20.432 115.312 19.688 115.632 18.904 115.856C18.136 116.08 17.352 116.192 16.552 116.192C15.32 116.192 14.176 115.976 13.12 115.544C12.064 115.096 11.136 114.48 10.336 113.696C9.552 112.912 8.936 112 8.488 110.96C8.04 109.904 7.816 108.776 7.816 107.576C7.816 106.376 8.04 105.264 8.488 104.24C8.936 103.2 9.56 102.288 10.36 101.504C11.176 100.72 12.112 100.112 13.168 99.68C14.24 99.248 15.4 99.032 16.648 99.032C17.448 99.032 18.232 99.136 19 99.344C19.768 99.552 20.496 99.848 21.184 100.232C21.872 100.616 22.488 101.08 23.032 101.624L21.376 103.568ZM25.9424 99.2H28.7744V113.576H36.0464V116H25.9424V99.2ZM46.2747 99.032C47.5227 99.032 48.6827 99.248 49.7547 99.68C50.8427 100.112 51.7867 100.72 52.5867 101.504C53.4027 102.288 54.0347 103.2 54.4827 104.24C54.9467 105.264 55.1787 106.376 55.1787 107.576C55.1787 108.776 54.9467 109.904 54.4827 110.96C54.0347 112 53.4027 112.912 52.5867 113.696C51.7867 114.48 50.8427 115.096 49.7547 115.544C48.6827 115.976 47.5227 116.192 46.2747 116.192C45.0267 116.192 43.8587 115.976 42.7707 115.544C41.6987 115.096 40.7547 114.48 39.9387 113.696C39.1387 112.912 38.5067 112 38.0427 110.96C37.5947 109.904 37.3707 108.776 37.3707 107.576C37.3707 106.376 37.5947 105.256 38.0427 104.216C38.5067 103.176 39.1387 102.272 39.9387 101.504C40.7547 100.72 41.6987 100.112 42.7707 99.68C43.8587 99.248 45.0267 99.032 46.2747 99.032ZM46.2987 101.432C45.4667 101.432 44.6827 101.592 43.9467 101.912C43.2267 102.216 42.5867 102.648 42.0267 103.208C41.4667 103.768 41.0267 104.424 40.7067 105.176C40.4027 105.912 40.2507 106.712 40.2507 107.576C40.2507 108.44 40.4107 109.248 40.7307 110C41.0507 110.752 41.4907 111.416 42.0507 111.992C42.6107 112.552 43.2507 112.992 43.9707 113.312C44.7067 113.632 45.4827 113.792 46.2987 113.792C47.1147 113.792 47.8827 113.632 48.6027 113.312C49.3387 112.992 49.9787 112.552 50.5227 111.992C51.0667 111.416 51.4907 110.752 51.7947 110C52.1147 109.248 52.2747 108.44 52.2747 107.576C52.2747 106.712 52.1147 105.912 51.7947 105.176C51.4907 104.424 51.0667 103.768 50.5227 103.208C49.9787 102.648 49.3387 102.216 48.6027 101.912C47.8827 101.592 47.1147 101.432 46.2987 101.432ZM68.4164 103.088C67.8084 102.704 67.2084 102.4 66.6164 102.176C66.0244 101.952 65.4644 101.792 64.9364 101.696C64.4084 101.6 63.9284 101.552 63.4964 101.552C62.6644 101.552 62.0004 101.712 61.5044 102.032C61.0084 102.352 60.7604 102.816 60.7604 103.424C60.7604 103.968 60.9204 104.416 61.2404 104.768C61.5764 105.104 62.0084 105.384 62.5364 105.608C63.0804 105.816 63.6724 106.016 64.3124 106.208C64.9684 106.4 65.6164 106.616 66.2564 106.856C66.8964 107.08 67.4884 107.376 68.0324 107.744C68.5764 108.112 69.0084 108.584 69.3284 109.16C69.6484 109.72 69.8084 110.432 69.8084 111.296C69.8084 112.288 69.5364 113.152 68.9924 113.888C68.4484 114.608 67.6964 115.168 66.7364 115.568C65.7924 115.968 64.7044 116.168 63.4724 116.168C62.5924 116.168 61.7364 116.056 60.9044 115.832C60.0724 115.592 59.2884 115.272 58.5524 114.872C57.8324 114.472 57.1844 114.008 56.6084 113.48L57.8324 111.152C58.4084 111.68 59.0164 112.128 59.6564 112.496C60.3124 112.864 60.9684 113.144 61.6244 113.336C62.2964 113.528 62.9284 113.624 63.5204 113.624C64.5124 113.624 65.2804 113.432 65.8244 113.048C66.3844 112.664 66.6644 112.128 66.6644 111.44C66.6644 110.88 66.4964 110.432 66.1604 110.096C65.8404 109.744 65.4084 109.456 64.8644 109.232C64.3364 109.008 63.7444 108.808 63.0884 108.632C62.4484 108.456 61.8004 108.256 61.1444 108.032C60.5044 107.792 59.9124 107.496 59.3684 107.144C58.8404 106.792 58.4084 106.336 58.0724 105.776C57.7524 105.216 57.5924 104.504 57.5924 103.64C57.5924 102.696 57.8484 101.88 58.3604 101.192C58.8724 100.488 59.5844 99.944 60.4964 99.56C61.4244 99.176 62.4964 98.984 63.7124 98.984C64.8004 98.984 65.8564 99.144 66.8804 99.464C67.9044 99.784 68.8084 100.2 69.5924 100.712L68.4164 103.088ZM73.1221 99.2H85.1221V101.624H75.9541V106.352H84.1621V108.752H75.9541V113.576H85.4101V116H73.1221V99.2Z" fill="white"/>
</svg>
