<svg width="95" height="127" viewBox="0 0 95 127" fill="none" xmlns="http://www.w3.org/2000/svg">
<path d="M91.0714 88.1099C91.8839 88.9224 91.8839 90.2349 91.0714 91.0474C90.6534 91.4653 90.1339 91.6528 89.5909 91.6528C89.0479 91.6528 88.5284 91.4458 88.1104 91.0474L45.8404 48.7774L3.57037 91.0704C3.1524 91.4883 2.63287 91.6758 2.08987 91.6758C1.54687 91.6758 1.02738 91.4688 0.609375 91.0704C-0.203125 90.2579 -0.203125 88.9454 0.609375 88.1329L42.8794 45.8629L0.609375 3.56988C-0.203125 2.75738 -0.203125 1.44488 0.609375 0.632375C1.42188 -0.180125 2.73438 -0.180125 3.54688 0.632375L45.8169 42.9024L88.1099 0.609375C88.9224 -0.203125 90.2349 -0.203125 91.0474 0.609375C91.8599 1.42188 91.8599 2.73438 91.0474 3.54688L48.7774 45.8169L91.0714 88.1099Z" fill="white"/>
<path d="M21.376 113.568C20.768 112.896 20.048 112.368 19.216 111.984C18.384 111.6 17.544 111.408 16.696 111.408C15.864 111.408 15.08 111.568 14.344 111.888C13.624 112.192 12.984 112.624 12.424 113.184C11.88 113.744 11.456 114.4 11.152 115.152C10.848 115.888 10.696 116.688 10.696 117.552C10.696 118.4 10.848 119.2 11.152 119.952C11.456 120.688 11.88 121.336 12.424 121.896C12.984 122.456 13.624 122.896 14.344 123.216C15.08 123.536 15.864 123.696 16.696 123.696C17.544 123.696 18.376 123.52 19.192 123.168C20.008 122.8 20.736 122.304 21.376 121.68L23.056 123.432C22.496 123.992 21.856 124.48 21.136 124.896C20.432 125.312 19.688 125.632 18.904 125.856C18.136 126.08 17.352 126.192 16.552 126.192C15.32 126.192 14.176 125.976 13.12 125.544C12.064 125.096 11.136 124.48 10.336 123.696C9.552 122.912 8.936 122 8.488 120.96C8.04 119.904 7.816 118.776 7.816 117.576C7.816 116.376 8.04 115.264 8.488 114.24C8.936 113.2 9.56 112.288 10.36 111.504C11.176 110.72 12.112 110.112 13.168 109.68C14.24 109.248 15.4 109.032 16.648 109.032C17.448 109.032 18.232 109.136 19 109.344C19.768 109.552 20.496 109.848 21.184 110.232C21.872 110.616 22.488 111.08 23.032 111.624L21.376 113.568ZM25.9424 109.2H28.7744V123.576H36.0464V126H25.9424V109.2ZM46.2747 109.032C47.5227 109.032 48.6827 109.248 49.7547 109.68C50.8427 110.112 51.7867 110.72 52.5867 111.504C53.4027 112.288 54.0347 113.2 54.4827 114.24C54.9467 115.264 55.1787 116.376 55.1787 117.576C55.1787 118.776 54.9467 119.904 54.4827 120.96C54.0347 122 53.4027 122.912 52.5867 123.696C51.7867 124.48 50.8427 125.096 49.7547 125.544C48.6827 125.976 47.5227 126.192 46.2747 126.192C45.0267 126.192 43.8587 125.976 42.7707 125.544C41.6987 125.096 40.7547 124.48 39.9387 123.696C39.1387 122.912 38.5067 122 38.0427 120.96C37.5947 119.904 37.3707 118.776 37.3707 117.576C37.3707 116.376 37.5947 115.256 38.0427 114.216C38.5067 113.176 39.1387 112.272 39.9387 111.504C40.7547 110.72 41.6987 110.112 42.7707 109.68C43.8587 109.248 45.0267 109.032 46.2747 109.032ZM46.2987 111.432C45.4667 111.432 44.6827 111.592 43.9467 111.912C43.2267 112.216 42.5867 112.648 42.0267 113.208C41.4667 113.768 41.0267 114.424 40.7067 115.176C40.4027 115.912 40.2507 116.712 40.2507 117.576C40.2507 118.44 40.4107 119.248 40.7307 120C41.0507 120.752 41.4907 121.416 42.0507 121.992C42.6107 122.552 43.2507 122.992 43.9707 123.312C44.7067 123.632 45.4827 123.792 46.2987 123.792C47.1147 123.792 47.8827 123.632 48.6027 123.312C49.3387 122.992 49.9787 122.552 50.5227 121.992C51.0667 121.416 51.4907 120.752 51.7947 120C52.1147 119.248 52.2747 118.44 52.2747 117.576C52.2747 116.712 52.1147 115.912 51.7947 115.176C51.4907 114.424 51.0667 113.768 50.5227 113.208C49.9787 112.648 49.3387 112.216 48.6027 111.912C47.8827 111.592 47.1147 111.432 46.2987 111.432ZM68.4164 113.088C67.8084 112.704 67.2084 112.4 66.6164 112.176C66.0244 111.952 65.4644 111.792 64.9364 111.696C64.4084 111.6 63.9284 111.552 63.4964 111.552C62.6644 111.552 62.0004 111.712 61.5044 112.032C61.0084 112.352 60.7604 112.816 60.7604 113.424C60.7604 113.968 60.9204 114.416 61.2404 114.768C61.5764 115.104 62.0084 115.384 62.5364 115.608C63.0804 115.816 63.6724 116.016 64.3124 116.208C64.9684 116.4 65.6164 116.616 66.2564 116.856C66.8964 117.08 67.4884 117.376 68.0324 117.744C68.5764 118.112 69.0084 118.584 69.3284 119.16C69.6484 119.72 69.8084 120.432 69.8084 121.296C69.8084 122.288 69.5364 123.152 68.9924 123.888C68.4484 124.608 67.6964 125.168 66.7364 125.568C65.7924 125.968 64.7044 126.168 63.4724 126.168C62.5924 126.168 61.7364 126.056 60.9044 125.832C60.0724 125.592 59.2884 125.272 58.5524 124.872C57.8324 124.472 57.1844 124.008 56.6084 123.48L57.8324 121.152C58.4084 121.68 59.0164 122.128 59.6564 122.496C60.3124 122.864 60.9684 123.144 61.6244 123.336C62.2964 123.528 62.9284 123.624 63.5204 123.624C64.5124 123.624 65.2804 123.432 65.8244 123.048C66.3844 122.664 66.6644 122.128 66.6644 121.44C66.6644 120.88 66.4964 120.432 66.1604 120.096C65.8404 119.744 65.4084 119.456 64.8644 119.232C64.3364 119.008 63.7444 118.808 63.0884 118.632C62.4484 118.456 61.8004 118.256 61.1444 118.032C60.5044 117.792 59.9124 117.496 59.3684 117.144C58.8404 116.792 58.4084 116.336 58.0724 115.776C57.7524 115.216 57.5924 114.504 57.5924 113.64C57.5924 112.696 57.8484 111.88 58.3604 111.192C58.8724 110.488 59.5844 109.944 60.4964 109.56C61.4244 109.176 62.4964 108.984 63.7124 108.984C64.8004 108.984 65.8564 109.144 66.8804 109.464C67.9044 109.784 68.8084 110.2 69.5924 110.712L68.4164 113.088ZM73.1221 109.2H85.1221V111.624H75.9541V116.352H84.1621V118.752H75.9541V123.576H85.4101V126H73.1221V109.2Z" fill="white"/>
</svg>
