<svg width="500" height="500" viewBox="0 0 500 500" fill="none" xmlns="http://www.w3.org/2000/svg" xmlns:xlink="http://www.w3.org/1999/xlink">
<rect width="500" height="500"/>
<path d="M386.925 256.216C366.62 235.782 340.222 223.608 311.784 221.363C341.27 203.012 360.897 170.303 360.897 132.996C360.897 75.5557 314.378 29 256.995 29C199.611 29 153.092 75.5557 153.092 132.996C153.092 170.326 172.747 203.049 202.256 221.395C173.933 223.715 147.618 235.856 127.304 256.184C104.617 278.887 92.122 309.074 92.122 341.187V491H421.867V341.187C421.867 309.064 409.46 278.891 386.925 256.216ZM169.419 132.996C169.419 84.5832 208.63 45.3409 256.995 45.3409C305.359 45.3409 344.571 84.5832 344.571 132.996C344.571 181.409 305.364 220.647 256.995 220.647C208.625 220.647 169.419 181.405 169.419 132.996ZM256.995 267.36L256.325 266.731L234.959 246.593H279.266L257.705 266.704L256.995 267.36ZM288.23 417.778L256.995 449.669L225.764 417.782L256.995 283.636L288.23 417.778ZM405.296 474.41H346.555V333.851H328.54C328.54 333.851 328.54 474.41 328.517 474.41H185.449V333.851H167.429V474.41H108.697V341.187C108.697 283.95 155.05 237.565 212.235 237.565L250.145 273.296L215.858 420.55L256.995 462.559L298.131 420.554L263.844 273.301L302.17 237.57C359.355 237.57 405.296 283.955 405.296 341.192V474.41Z" fill="#CE6861"/>
</svg>
