<svg width="500" height="500" viewBox="0 0 500 500" fill="none" xmlns="http://www.w3.org/2000/svg">
<path d="M250 495C385.099 495 495 385.099 495 250C495 114.901 385.099 5 250 5C114.901 5 4.99994 114.901 4.99994 250C4.99994 385.099 114.901 495 250 495ZM250 21.6102C375.93 21.6102 478.39 124.062 478.39 250C478.39 375.938 375.93 478.39 250 478.39C124.07 478.39 21.6101 375.938 21.6101 250C21.6101 124.062 124.07 21.6102 250 21.6102Z" fill="black"/>
<path d="M280.272 327.86L291.999 316.092L225.525 249.892L292.107 181.026L280.172 169.482L202.196 250.108L280.272 327.86Z" fill="black"/>
</svg>
