<svg width="500" height="500" viewBox="0 0 500 500" fill="none" xmlns="http://www.w3.org/2000/svg">
<path d="M250 495C114.901 495 5 385.099 5 250C5 114.901 114.901 5 250 5C385.099 5 495 114.901 495 250C495 385.099 385.099 495 250 495ZM250 21.6102C124.07 21.6102 21.6102 124.062 21.6102 250C21.6102 375.938 124.07 478.39 250 478.39C375.93 478.39 478.39 375.938 478.39 250C478.39 124.062 375.93 21.6102 250 21.6102Z" fill="black"/>
<path d="M219.728 327.86L208.001 316.092L274.475 249.892L207.893 181.026L219.828 169.482L297.804 250.108L219.728 327.86Z" fill="black"/>
</svg>
