<svg width="500" height="500" viewBox="0 0 500 500" fill="none" xmlns="http://www.w3.org/2000/svg">
<rect width="500" height="500" rx="60" fill="#F9DAF6"/>
<path d="M67.7 405.1C67.7 398.3 69.2667 392.2 72.4 386.8C75.6 381.4 79.9 377.2 85.3 374.2C90.7667 371.133 96.7333 369.6 103.2 369.6C110.6 369.6 117.167 371.433 122.9 375.1C128.7 378.7 132.9 383.833 135.5 390.5H121.8C120 386.833 117.5 384.1 114.3 382.3C111.1 380.5 107.4 379.6 103.2 379.6C98.6 379.6 94.5 380.633 90.9 382.7C87.3 384.767 84.4667 387.733 82.4 391.6C80.4 395.467 79.4 399.967 79.4 405.1C79.4 410.233 80.4 414.733 82.4 418.6C84.4667 422.467 87.3 425.467 90.9 427.6C94.5 429.667 98.6 430.7 103.2 430.7C107.4 430.7 111.1 429.8 114.3 428C117.5 426.2 120 423.467 121.8 419.8H135.5C132.9 426.467 128.7 431.6 122.9 435.2C117.167 438.8 110.6 440.6 103.2 440.6C96.6667 440.6 90.7 439.1 85.3 436.1C79.9 433.033 75.6 428.8 72.4 423.4C69.2667 418 67.7 411.9 67.7 405.1ZM190.744 425.8H161.644L156.644 440H144.744L169.644 370.4H182.844L207.744 440H195.744L190.744 425.8ZM187.544 416.5L176.244 384.2L164.844 416.5H187.544ZM229.97 430.8H253.47V440H218.57V370.5H229.97V430.8ZM274.404 430.8H297.904V440H263.004V370.5H274.404V430.8ZM344.714 370.5V414.8C344.714 420.067 346.081 424.033 348.814 426.7C351.614 429.367 355.481 430.7 360.414 430.7C365.414 430.7 369.281 429.367 372.014 426.7C374.814 424.033 376.214 420.067 376.214 414.8V370.5H387.614V414.6C387.614 420.267 386.381 425.067 383.914 429C381.447 432.933 378.147 435.867 374.014 437.8C369.881 439.733 365.314 440.7 360.314 440.7C355.314 440.7 350.747 439.733 346.614 437.8C342.547 435.867 339.314 432.933 336.914 429C334.514 425.067 333.314 420.267 333.314 414.6V370.5H344.714ZM425.357 440.7C420.69 440.7 416.49 439.9 412.757 438.3C409.024 436.633 406.09 434.3 403.957 431.3C401.824 428.3 400.757 424.8 400.757 420.8H412.957C413.224 423.8 414.39 426.267 416.457 428.2C418.59 430.133 421.557 431.1 425.357 431.1C429.29 431.1 432.357 430.167 434.557 428.3C436.757 426.367 437.857 423.9 437.857 420.9C437.857 418.567 437.157 416.667 435.757 415.2C434.424 413.733 432.724 412.6 430.657 411.8C428.657 411 425.857 410.133 422.257 409.2C417.724 408 414.024 406.8 411.157 405.6C408.357 404.333 405.957 402.4 403.957 399.8C401.957 397.2 400.957 393.733 400.957 389.4C400.957 385.4 401.957 381.9 403.957 378.9C405.957 375.9 408.757 373.6 412.357 372C415.957 370.4 420.124 369.6 424.857 369.6C431.59 369.6 437.09 371.3 441.357 374.7C445.69 378.033 448.09 382.633 448.557 388.5H435.957C435.757 385.967 434.557 383.8 432.357 382C430.157 380.2 427.257 379.3 423.657 379.3C420.39 379.3 417.724 380.133 415.657 381.8C413.59 383.467 412.557 385.867 412.557 389C412.557 391.133 413.19 392.9 414.457 394.3C415.79 395.633 417.457 396.7 419.457 397.5C421.457 398.3 424.19 399.167 427.657 400.1C432.257 401.367 435.99 402.633 438.857 403.9C441.79 405.167 444.257 407.133 446.257 409.8C448.324 412.4 449.357 415.9 449.357 420.3C449.357 423.833 448.39 427.167 446.457 430.3C444.59 433.433 441.824 435.967 438.157 437.9C434.557 439.767 430.29 440.7 425.357 440.7Z" fill="black"/>
<g clip-path="url(#clip0_24_3)">
<path fill-rule="evenodd" clip-rule="evenodd" d="M278.208 245.234C278.317 245.241 278.425 245.26 278.527 245.273C278.616 245.285 278.698 245.304 278.788 245.317L293.421 230.684C298.226 225.878 304.744 223.18 311.542 223.18C318.34 223.18 324.858 225.878 329.663 230.684L348.758 249.779C353.564 254.585 356.263 261.102 356.263 267.9C356.263 274.698 353.564 281.216 348.758 286.021L329.663 305.116C320.205 314.575 305.317 317.815 287.329 314.416C263.709 309.954 234.182 293.971 206.736 268.957C203.623 266.124 203.407 261.3 206.239 258.187C209.072 255.075 213.903 254.852 217.009 257.691C241.991 280.458 268.667 295.372 290.162 299.426C302.268 301.718 312.516 300.699 318.881 294.334L337.976 275.239C339.924 273.291 341.012 270.65 341.012 267.9C341.012 265.15 339.924 262.509 337.976 260.561L318.881 241.466C316.933 239.519 314.292 238.43 311.542 238.43C308.792 238.43 306.151 239.519 304.203 241.466L288.488 257.181C285.757 259.912 281.894 261.191 278.068 260.625L279.189 260.701L276.503 260.383C276.433 260.377 276.363 260.37 276.293 260.364C262.213 258.696 243.271 248.601 226.588 231.919C209.823 215.153 199.715 196.096 198.136 182.106C197.5 177.129 199.206 172.139 202.758 168.587L217.041 154.304C218.988 152.356 220.077 149.715 220.077 146.965C220.077 144.215 218.988 141.574 217.041 139.626L197.946 120.531C195.998 118.583 193.356 117.495 190.607 117.495C187.857 117.495 185.216 118.583 183.268 120.531L164.173 139.626C158.826 144.973 157.299 153.158 158.266 162.833C160.016 180.228 169.939 201.876 185.992 223.517C188.5 226.903 187.787 231.677 184.414 234.185C181.027 236.693 176.247 235.986 173.746 232.606C155.739 208.336 145.052 183.863 143.098 164.354C141.602 149.415 145.129 137.105 153.39 128.844L172.485 109.749C177.291 104.943 183.809 102.244 190.607 102.244C197.405 102.244 203.922 104.943 208.728 109.749L227.823 128.844C232.629 133.649 235.327 140.167 235.327 146.965C235.327 153.763 232.629 160.28 227.823 165.086L213.54 179.369C213.323 179.586 213.222 179.891 213.26 180.184C213.26 180.222 213.266 180.254 213.273 180.286C214.584 191.921 223.533 207.299 237.37 221.136C251.208 234.974 266.58 243.917 278.208 245.234Z" fill="#C18ABB"/>
</g>
<defs>
<clipPath id="clip0_24_3">
<rect width="244" height="305" fill="white" transform="translate(128 87)"/>
</clipPath>
</defs>
</svg>
