<svg width="500" height="500" viewBox="0 0 500 500" fill="none" xmlns="http://www.w3.org/2000/svg">
<rect width="500" height="500" rx="250" fill="white"/>
<mask id="mask0_1_71" style="mask-type:luminance" maskUnits="userSpaceOnUse" x="90" y="90" width="320" height="320">
<path d="M410 90H90V410H410V90Z" fill="white"/>
</mask>
<g mask="url(#mask0_1_71)">
<path d="M366.878 90H133.122C109.308 90 90.0015 109.305 90.0015 133.121V366.878C90.0015 390.693 109.307 409.999 133.122 409.999H248.409L248.606 295.648H218.897C215.037 295.648 211.904 292.527 211.888 288.666L211.746 251.806C211.731 247.924 214.874 244.769 218.756 244.769H248.41V209.153C248.41 167.821 273.653 145.316 310.524 145.316H340.779C344.65 145.316 347.789 148.454 347.789 152.326V183.406C347.789 187.276 344.652 190.414 340.783 190.416L322.216 190.425C302.164 190.425 298.282 199.953 298.282 213.936V244.77H342.341C346.54 244.77 349.797 248.436 349.302 252.605L344.933 289.465C344.515 292.992 341.524 295.65 337.973 295.65H298.478L298.282 410H366.88C390.694 410 409.999 390.694 409.999 366.88V133.121C409.998 109.305 390.693 90 366.878 90Z" fill="#475993"/>
</g>
</svg>
