<svg width="500" height="500" viewBox="0 0 500 500" fill="none" xmlns="http://www.w3.org/2000/svg">
<rect width="500" height="500" rx="250" fill="white"/>
<path d="M314.67 90H185.33C132.765 90 90 132.765 90 185.33V314.67C90 367.235 132.765 410 185.33 410H314.67C367.235 410 410 367.235 410 314.67V185.33C409.999 132.765 367.235 90 314.67 90ZM377.808 314.67C377.808 349.54 349.54 377.808 314.67 377.808H185.33C150.46 377.808 122.192 349.54 122.192 314.67V185.33C122.192 150.459 150.46 122.192 185.33 122.192H314.67C349.54 122.192 377.808 150.459 377.808 185.33V314.67Z" fill="url(#paint0_linear_1_69)"/>
<path d="M250 167.236C204.364 167.236 167.237 204.364 167.237 249.999C167.237 295.635 204.364 332.763 250 332.763C295.636 332.763 332.764 295.635 332.764 249.999C332.764 204.363 295.636 167.236 250 167.236ZM250 300.571C222.071 300.571 199.429 277.93 199.429 250C199.429 222.07 222.071 199.428 250 199.428C277.93 199.428 300.572 222.07 300.572 250C300.572 277.93 277.93 300.571 250 300.571Z" fill="url(#paint1_linear_1_69)"/>
<path d="M332.921 187.69C343.874 187.69 352.753 178.812 352.753 167.859C352.753 156.907 343.874 148.028 332.921 148.028C321.969 148.028 313.09 156.907 313.09 167.859C313.09 178.812 321.969 187.69 332.921 187.69Z" fill="url(#paint2_linear_1_69)"/>
<defs>
<linearGradient id="paint0_linear_1_69" x1="250" y1="409.068" x2="250" y2="92.4854" gradientUnits="userSpaceOnUse">
<stop stop-color="#E09B3D"/>
<stop offset="0.3" stop-color="#C74C4D"/>
<stop offset="0.6" stop-color="#C21975"/>
<stop offset="1" stop-color="#7024C4"/>
</linearGradient>
<linearGradient id="paint1_linear_1_69" x1="250" y1="409.067" x2="250" y2="92.4853" gradientUnits="userSpaceOnUse">
<stop stop-color="#E09B3D"/>
<stop offset="0.3" stop-color="#C74C4D"/>
<stop offset="0.6" stop-color="#C21975"/>
<stop offset="1" stop-color="#7024C4"/>
</linearGradient>
<linearGradient id="paint2_linear_1_69" x1="332.921" y1="409.068" x2="332.921" y2="92.4853" gradientUnits="userSpaceOnUse">
<stop stop-color="#E09B3D"/>
<stop offset="0.3" stop-color="#C74C4D"/>
<stop offset="0.6" stop-color="#C21975"/>
<stop offset="1" stop-color="#7024C4"/>
</linearGradient>
</defs>
</svg>
