<svg width="500" height="500" viewBox="0 0 500 500" fill="none" xmlns="http://www.w3.org/2000/svg">
<rect width="500" height="500" rx="250" fill="white"/>
<path d="M372.863 100H127.137C112.15 100 100 112.15 100 127.137V372.862C100 387.85 112.15 400 127.137 400H372.862C387.85 400 400 387.85 400 372.862V127.137C400 112.15 387.85 100 372.863 100ZM192.833 359.04C192.833 363.402 189.297 366.937 184.935 366.937H151.318C146.956 366.937 143.421 363.402 143.421 359.04V218.118C143.421 213.756 146.956 210.22 151.318 210.22H184.935C189.297 210.22 192.833 213.756 192.833 218.118V359.04ZM168.126 196.936C150.489 196.936 136.19 182.637 136.19 164.999C136.19 147.362 150.489 133.063 168.126 133.063C185.765 133.063 200.063 147.362 200.063 164.999C200.063 182.637 185.765 196.936 168.126 196.936ZM368.516 359.676C368.516 363.686 365.264 366.937 361.254 366.937H325.181C321.171 366.937 317.919 363.686 317.919 359.676V293.576C317.919 283.715 320.812 250.365 292.15 250.365C269.918 250.365 265.409 273.192 264.503 283.436V359.676C264.503 363.686 261.252 366.937 257.241 366.937H222.352C218.342 366.937 215.091 363.686 215.091 359.676V217.481C215.091 213.471 218.342 210.22 222.352 210.22H257.241C261.252 210.22 264.503 213.471 264.503 217.481V229.776C272.747 217.404 284.998 207.855 311.083 207.855C368.846 207.855 368.516 261.821 368.516 291.472V359.676Z" fill="#0077B7"/>
</svg>
