<svg width="500" height="500" viewBox="0 0 500 500" fill="none" xmlns="http://www.w3.org/2000/svg">
<rect width="500" height="500" fill="white"/>
<path d="M413.817 50H86.1833C66.2 50 50 66.2 50 86.1833V413.816C50 433.8 66.2 450 86.1833 450H413.816C433.8 450 450 433.8 450 413.816V86.1833C450 66.2 433.8 50 413.817 50ZM173.777 395.386C173.777 401.202 169.063 405.916 163.247 405.916H118.424C112.608 405.916 107.894 401.202 107.894 395.386V207.49C107.894 201.674 112.608 196.96 118.424 196.96H163.247C169.063 196.96 173.777 201.674 173.777 207.49V395.386ZM140.835 179.248C117.318 179.248 98.2534 160.183 98.2534 136.666C98.2534 113.149 117.318 94.0838 140.835 94.0838C164.353 94.0838 183.418 113.149 183.418 136.666C183.418 160.183 164.354 179.248 140.835 179.248ZM408.021 396.234C408.021 401.581 403.686 405.916 398.339 405.916H350.241C344.894 405.916 340.559 401.581 340.559 396.234V308.101C340.559 294.953 344.416 250.487 306.2 250.487C276.557 250.487 270.545 280.922 269.337 294.581V396.234C269.337 401.581 265.003 405.916 259.655 405.916H213.136C207.79 405.916 203.454 401.581 203.454 396.234V206.642C203.454 201.295 207.79 196.96 213.136 196.96H259.655C265.002 196.96 269.337 201.295 269.337 206.642V223.034C280.329 206.539 296.664 193.807 331.444 193.807C408.462 193.807 408.021 265.762 408.021 305.296V396.234Z" fill="#0077B7"/>
</svg>
