<svg width="500" height="500" viewBox="0 0 500 500" fill="none" xmlns="http://www.w3.org/2000/svg">
<rect width="500" height="500" rx="250" fill="white"/>
<path d="M381.053 90H118.947C102.96 90 90 102.96 90 118.947V381.053C90 397.04 102.96 410 118.947 410H381.053C397.04 410 410 397.04 410 381.053V118.947C410 102.96 397.04 90 381.053 90ZM189.021 366.309C189.021 370.962 185.251 374.733 180.598 374.733H144.739C140.087 374.733 136.315 370.962 136.315 366.309V215.992C136.315 211.34 140.087 207.568 144.739 207.568H180.598C185.251 207.568 189.021 211.34 189.021 215.992V366.309ZM162.668 193.398C143.855 193.398 128.603 178.147 128.603 159.332C128.603 140.519 143.855 125.267 162.668 125.267C181.482 125.267 196.734 140.519 196.734 159.332C196.734 178.147 181.483 193.398 162.668 193.398ZM376.417 366.988C376.417 371.265 372.948 374.733 368.671 374.733H330.193C325.916 374.733 322.447 371.265 322.447 366.988V296.481C322.447 285.962 325.533 250.39 294.96 250.39C271.245 250.39 266.436 274.738 265.469 285.665V366.988C265.469 371.265 262.003 374.733 257.724 374.733H220.509C216.232 374.733 212.764 371.265 212.764 366.988V215.313C212.764 211.036 216.232 207.568 220.509 207.568H257.724C262.002 207.568 265.469 211.036 265.469 215.313V228.428C274.263 215.231 287.331 205.046 315.155 205.046C376.769 205.046 376.417 262.609 376.417 294.237V366.988Z" fill="#0077B7"/>
</svg>
