<svg width="500" height="500" viewBox="0 0 500 500" fill="none" xmlns="http://www.w3.org/2000/svg">
<rect width="500" height="500" rx="60" fill="#E7E7E7"/>
<path d="M187.7 363.5V433H176.3V385.4L155.1 433H147.2L125.9 385.4V433H114.5V363.5H126.8L151.2 418L175.5 363.5H187.7ZM214.084 372.7V393.1H238.084V402.4H214.084V423.7H241.084V433H202.684V363.4H241.084V372.7H214.084ZM312.225 433H300.825L266.525 381.1V433H255.125V363.4H266.525L300.825 415.2V363.4H312.225V433ZM338.495 363.5V407.8C338.495 413.067 339.862 417.033 342.595 419.7C345.395 422.367 349.262 423.7 354.195 423.7C359.195 423.7 363.062 422.367 365.795 419.7C368.595 417.033 369.995 413.067 369.995 407.8V363.5H381.395V407.6C381.395 413.267 380.162 418.067 377.695 422C375.229 425.933 371.929 428.867 367.795 430.8C363.662 432.733 359.095 433.7 354.095 433.7C349.095 433.7 344.529 432.733 340.395 430.8C336.329 428.867 333.095 425.933 330.695 422C328.295 418.067 327.095 413.267 327.095 407.6V363.5H338.495Z" fill="black"/>
<path d="M362.708 224.578H136.292C130.611 224.578 126 219.967 126 214.286C126 208.605 130.611 203.995 136.292 203.995H362.708C368.389 203.995 373 208.605 373 214.286C373 219.967 368.389 224.578 362.708 224.578Z" fill="black"/>
<path d="M362.708 145.674H136.292C130.611 145.674 126 141.064 126 135.382C126 129.701 130.611 125.091 136.292 125.091H362.708C368.389 125.091 373 129.701 373 135.382C373 141.064 368.389 145.674 362.708 145.674Z" fill="black"/>
<path d="M362.708 303.479H136.292C130.611 303.479 126 298.869 126 293.188C126 287.507 130.611 282.896 136.292 282.896H362.708C368.389 282.896 373 287.507 373 293.188C373 298.869 368.389 303.479 362.708 303.479Z" fill="black"/>
</svg>
