<svg width="500" height="500" viewBox="0 0 500 500" fill="none" xmlns="http://www.w3.org/2000/svg">
<rect width="500" height="500" rx="250" fill="white"/>
<path d="M343.54 136H156.46C119.755 136 90 165.829 90 202.624V296.375C90 333.171 119.755 363 156.46 363H343.54C380.245 363 410 333.171 410 296.375V202.624C410 165.829 380.245 136 343.54 136ZM298.594 254.062L211.091 295.899C208.759 297.013 206.066 295.309 206.066 292.72V206.43C206.066 203.804 208.829 202.102 211.166 203.29L298.669 247.742C301.271 249.063 301.226 252.803 298.594 254.062Z" fill="#F61C0D"/>
</svg>
