<svg width="500" height="500" viewBox="0 0 500 500" fill="none" xmlns="http://www.w3.org/2000/svg">
<path d="M250.067 5.5C385.021 5.5 494.5 114.947 494.5 250C494.5 385.055 385.155 494.5 250.067 494.5C114.976 494.5 5.50006 385.051 5.5 250C5.5 114.951 115.11 5.50026 250.067 5.5Z" stroke="#B26EAC" stroke-width="11" stroke-miterlimit="2.61"/>
<path fill-rule="evenodd" clip-rule="evenodd" d="M256.853 319.046H100.951C92.4024 319.046 92.2667 318.91 90.0958 310.635C86.568 296.935 83.1758 283.37 79.648 269.67C79.1053 267.635 78.8339 265.6 78.8339 263.565C78.8339 241.319 78.8339 219.208 78.8339 196.962C78.8339 177.564 91.3169 165.085 110.72 165.085H403.257C421.982 165.085 434.601 177.564 434.736 196.148C434.736 218.801 435.143 241.319 434.601 263.972C434.465 270.755 431.751 277.537 430.123 284.32C427.816 293.815 425.51 303.175 423.067 312.67C421.71 318.096 420.354 319.046 414.791 319.046C371.507 319.046 328.088 319.046 284.804 319.046H256.853ZM422.796 259.496V255.155C422.796 236.164 422.796 217.038 422.796 198.047C422.796 183.533 416.147 176.886 401.765 176.886H110.856C97.9655 176.886 90.9099 183.94 90.9099 196.691C90.9099 216.495 90.9099 236.164 90.9099 255.969C90.9099 257.19 91.0456 258.275 91.1813 259.632H422.66L422.796 259.496ZM421.032 272.111H92.6738C95.5232 283.37 98.2369 294.358 100.951 305.21C101.222 306.023 102.307 307.244 102.986 307.244C106.785 307.515 110.584 307.244 114.655 307.244C114.655 301.683 114.655 296.664 114.655 291.509C114.655 285.269 116.554 283.37 122.66 283.37H390.91C397.016 283.37 398.915 285.269 398.915 291.509V307.244C402.986 307.244 406.378 307.38 409.77 307.244C410.72 307.244 412.348 306.023 412.484 305.21C415.333 294.358 418.047 283.506 420.896 272.111M387.111 295.714H126.595V306.973H387.111V295.714Z" fill="#B26EAC"/>
<path fill-rule="evenodd" clip-rule="evenodd" d="M264.45 338.985C264.179 339.799 264.179 341.834 263.229 343.19C260.787 346.988 261.329 350.244 262.958 354.314C264.315 357.705 263.908 362.046 263.5 365.844C263.093 368.828 261.601 371.812 260.38 374.661C259.159 377.645 256.716 378.73 253.731 378.052C250.746 377.509 248.982 375.339 249.254 372.49C249.389 369.777 250.746 367.064 251.153 364.216C251.56 361.774 251.967 359.061 251.153 357.027C248.711 351.194 248.304 345.632 251.424 340.07C252.103 338.85 252.374 337.493 252.781 336.272C253.731 332.474 256.173 330.711 259.566 331.118C262.822 331.525 264.722 334.238 264.45 338.85" fill="#B26EAC"/>
<path fill-rule="evenodd" clip-rule="evenodd" d="M359.295 338.985C359.295 338.985 359.295 341.02 358.481 342.105C355.631 346.582 356.038 350.651 358.345 355.534C359.702 358.247 359.159 362.181 358.481 365.437C357.938 368.557 356.445 371.541 355.36 374.661C354.274 377.509 351.968 378.595 349.118 378.188C346.133 377.781 344.098 375.882 344.369 373.033C344.505 370.049 345.862 367.065 346.405 363.945C346.676 361.774 347.083 359.333 346.405 357.433C343.827 351.465 343.42 345.903 346.54 340.07C347.083 338.985 347.355 337.765 347.626 336.544C348.576 332.61 351.018 330.711 354.546 331.118C357.802 331.525 359.566 334.238 359.431 338.985" fill="#B26EAC"/>
<path fill-rule="evenodd" clip-rule="evenodd" d="M169.47 338.714C169.47 338.714 169.47 341.02 168.791 341.969C165.671 346.717 166.756 350.922 168.656 355.806C169.877 358.79 168.927 362.724 168.52 366.115C168.113 368.828 166.892 371.541 165.806 374.254C164.721 377.238 162.278 378.459 159.293 378.052C156.444 377.645 154.409 375.746 154.544 372.762C154.544 370.049 155.223 367.064 156.444 364.487C157.801 361.639 158.072 359.333 156.444 356.484C153.459 351.194 153.595 345.768 156.444 340.477C157.122 339.121 157.53 337.629 157.937 336.272C158.886 332.474 161.329 330.575 164.585 331.118C167.842 331.525 169.741 334.102 169.47 338.714Z" fill="#B26EAC"/>
<path fill-rule="evenodd" clip-rule="evenodd" d="M201.9 370.185C206.513 364.216 202.985 356.891 202.171 349.295C201.764 344.276 204.342 338.715 206.377 333.831C207.056 332.339 210.584 331.254 212.619 331.525C214.247 331.796 216.554 334.509 216.689 336.137C216.825 339.121 215.332 342.106 214.925 345.226C214.654 347.532 213.976 350.245 214.925 352.008C217.775 357.841 217.911 363.267 214.925 368.828C214.247 370.185 213.976 371.541 213.569 373.034C212.619 376.696 210.041 378.595 206.649 377.917C202.985 377.239 201.764 374.797 202.035 369.913" fill="#B26EAC"/>
<path fill-rule="evenodd" clip-rule="evenodd" d="M296.202 371.27C297.016 368.829 298.237 366.523 298.78 364.081C299.323 361.911 299.73 359.062 298.78 357.163C295.931 351.194 295.795 345.633 299.051 339.935C299.73 338.715 299.865 337.087 300.272 335.595C301.222 332.475 303.258 330.711 306.65 331.118C310.042 331.525 311.941 333.696 311.67 336.951C311.399 339.8 310.177 342.377 309.77 345.226C309.363 347.532 308.821 350.245 309.77 352.008C312.484 357.841 312.484 363.267 309.635 368.964C308.956 370.185 308.685 371.542 308.414 372.762C307.599 376.561 305.293 378.324 301.765 378.052C298.373 377.646 296.473 375.34 296.202 371.135" fill="#B26EAC"/>
<path fill-rule="evenodd" clip-rule="evenodd" d="M257.123 188.823C270.284 188.823 283.446 188.823 296.607 188.823C302.306 188.823 304.205 190.858 304.205 196.555C304.205 203.473 304.205 210.256 304.205 217.038C304.205 222.057 302.17 224.227 297.286 224.227H216.281C211.668 224.227 209.633 222.057 209.497 217.309C209.497 209.984 209.497 202.795 209.497 195.47C209.497 190.858 211.668 188.823 216.417 188.823C229.986 188.823 243.554 188.823 257.123 188.823ZM221.437 212.29H292.265V200.76H221.437V212.29Z" fill="#B26EAC"/>
</svg>
