<svg width="500" height="500" viewBox="0 0 500 500" fill="none" xmlns="http://www.w3.org/2000/svg">
<path d="M250.067 5.5C385.021 5.5 494.5 114.947 494.5 250C494.5 385.055 385.155 494.5 250.067 494.5C114.976 494.5 5.5 385.051 5.5 250C5.50005 115.085 115.112 5.50026 250.067 5.5Z" stroke="#B26EAC" stroke-width="11" stroke-miterlimit="2.61"/>
<path fill-rule="evenodd" clip-rule="evenodd" d="M232.836 326.506V323.657C232.836 323.657 231.886 323.657 231.343 323.521C229.851 323.25 228.63 322.572 228.358 321.08C228.087 318.909 227.951 316.739 228.358 314.704C228.765 312.67 230.665 312.263 232.7 312.398V309.414C228.765 308.872 227.951 307.922 227.951 303.852C227.951 302.903 227.951 301.818 228.087 301.004C228.358 299.376 229.579 298.291 231.343 298.155C232.157 298.155 232.836 298.155 232.7 297.07C232.7 296.121 232.972 295.035 231.479 294.764C226.323 293.815 221.438 292.051 216.825 289.338C204.478 282.42 198.915 271.432 198.779 257.596C198.779 247.558 198.779 237.52 198.779 227.618C198.779 226.533 198.643 225.719 197.558 225.041C196.201 224.091 195.658 222.599 195.522 220.836C195.522 218.394 195.522 215.817 195.522 213.239C195.522 209.712 197.965 207.542 201.493 207.542C206.106 207.542 210.719 207.542 215.332 207.542C215.604 207.542 215.875 207.542 216.418 207.542V164.542C216.418 161.15 217.775 159.93 221.031 159.93C223.202 159.93 225.373 159.93 227.544 159.93C230.665 159.93 232.022 161.286 232.022 164.406C232.022 178.242 232.022 192.078 232.022 205.779V207.678H267.707C267.707 207.678 267.707 206.457 267.707 205.914V164.813C267.707 161.15 268.928 159.93 272.592 159.93H278.697C282.225 159.93 283.446 161.15 283.446 164.677C283.446 178.378 283.446 192.078 283.446 205.779V207.813H287.11C290.773 207.813 294.437 207.813 298.1 207.813C301.764 207.813 304.071 210.119 304.071 213.782C304.071 216.088 304.071 218.394 304.071 220.836C304.071 222.87 303.256 224.498 301.764 225.855C301.357 226.262 301.086 227.075 301.086 227.754C301.086 237.792 301.086 247.965 301.086 258.003C301.086 267.77 298.236 276.587 291.181 283.641C285.346 289.609 277.883 292.865 270.014 294.9C269.742 294.9 269.607 294.9 269.335 294.9C267.617 295.352 266.893 296.482 267.164 298.291C267.164 298.291 267.3 298.426 267.436 298.426C271.099 298.833 271.913 299.783 271.913 303.581V304.124C271.913 308.329 271.235 309.143 267.164 309.821V312.67C267.164 312.67 267.843 312.805 268.25 312.805C270.285 312.941 271.642 314.297 271.913 316.332C271.913 317.689 271.913 319.045 271.913 320.402C271.778 322.708 270.421 323.793 267.3 324.2V327.048C267.3 327.048 268.114 327.048 268.521 327.048C270.149 327.184 271.506 328.269 271.778 329.897C271.913 331.66 271.913 333.559 271.778 335.323C271.506 337.222 270.014 338.171 267.978 338.171C265.265 338.171 262.551 338.171 259.702 338.171C259.159 338.171 258.752 338.171 257.938 338.171V378.188C257.938 387.005 255.088 394.737 248.711 400.977C240.977 408.437 231.75 411.15 221.303 409.251C193.487 404.232 168.521 392.702 146.811 374.661C120.353 352.55 102.578 324.878 94.1656 291.508C83.4464 249.322 88.3311 208.763 110.041 170.917C130.801 134.699 161.33 110.146 201.086 97.1242C215.332 92.5122 229.986 90.2063 244.912 89.7993C280.461 88.8498 313.026 98.3452 342.062 118.828C377.476 143.923 399.729 177.971 408.277 220.7C411.805 238.334 412.076 255.969 409.362 273.739C404.749 305.073 391.995 332.61 371.235 356.62C356.581 373.711 338.942 387.005 318.589 396.636C303.935 403.554 288.602 407.895 272.456 410.201C269.878 410.608 267.164 410.879 264.315 411.15V408.03C264.315 404.232 264.315 400.299 264.315 396.5C264.315 395.415 264.586 395.144 265.672 395.008C283.718 392.973 300.814 388.09 316.825 379.68C333.107 371.27 347.218 360.011 359.159 346.175C376.119 326.506 387.381 303.988 392.13 278.486C399.322 240.911 392.537 205.643 371.778 173.494C352.103 142.973 324.695 122.219 289.824 111.639C270.692 105.806 251.018 104.449 231.208 107.027C198.779 111.232 170.828 124.932 147.49 147.857C126.052 169.018 112.212 194.384 106.92 223.956C99.3216 266.278 108.277 305.073 134.328 339.392C155.767 367.607 184.396 385.377 218.996 392.973C222.252 393.652 225.509 394.601 228.765 394.059C235.821 392.973 241.113 387.141 241.384 379.951C241.655 373.44 241.384 366.793 241.384 360.282C241.384 353.635 241.384 346.989 241.384 340.342C241.384 338.85 240.977 338.443 239.484 338.443C236.906 338.443 234.193 338.443 231.615 338.443C228.901 338.443 227.544 336.951 227.408 334.238C227.408 333.559 227.408 332.881 227.408 332.203C227.408 328.54 228.358 327.455 232.157 327.048M250.204 259.088C247.49 267.906 244.776 276.316 242.198 284.726C242.198 284.726 242.47 284.726 242.47 284.862C251.425 274.145 260.38 263.429 269.607 252.442H252.103C255.088 245.117 258.073 238.063 261.058 230.874C256.445 230.874 252.239 230.874 248.033 230.874C246.947 230.874 246.404 231.281 245.997 232.23C242.877 239.826 239.756 247.558 236.771 255.155C236.228 256.376 235.821 257.596 235.278 259.088H250.339H250.204Z" fill="#B26EAC"/>
<mask id="path-3-inside-1_2_77" fill="white">
<path d="M232.836 326.506V323.657C232.836 323.657 231.886 323.657 231.343 323.521C229.851 323.25 228.63 322.572 228.358 321.08C228.087 318.909 227.951 316.739 228.358 314.704C228.765 312.67 230.665 312.263 232.7 312.398V309.414C228.765 308.872 227.951 307.922 227.951 303.852C227.951 302.903 227.951 301.818 228.087 301.004C228.358 299.376 229.579 298.291 231.343 298.155C232.157 298.155 232.836 298.155 232.7 297.07C232.7 296.121 232.972 295.035 231.479 294.764C226.323 293.815 221.438 292.051 216.825 289.338C204.478 282.42 198.915 271.432 198.779 257.596C198.779 247.558 198.779 237.52 198.779 227.618C198.779 226.533 198.643 225.719 197.558 225.041C196.201 224.091 195.658 222.599 195.522 220.836C195.522 218.394 195.522 215.817 195.522 213.239C195.522 209.712 197.965 207.542 201.493 207.542C206.106 207.542 210.719 207.542 215.332 207.542C215.604 207.542 215.875 207.542 216.418 207.542V164.542C216.418 161.15 217.775 159.93 221.031 159.93C223.202 159.93 225.373 159.93 227.544 159.93C230.665 159.93 232.022 161.286 232.022 164.406C232.022 178.242 232.022 192.078 232.022 205.779V207.678H267.707C267.707 207.678 267.707 206.457 267.707 205.914V164.813C267.707 161.15 268.928 159.93 272.592 159.93H278.697C282.225 159.93 283.446 161.15 283.446 164.677C283.446 178.378 283.446 192.078 283.446 205.779V207.813H287.11C290.773 207.813 294.437 207.813 298.1 207.813C301.764 207.813 304.071 210.119 304.071 213.782C304.071 216.088 304.071 218.394 304.071 220.836C304.071 222.87 303.256 224.498 301.764 225.855C301.357 226.262 301.086 227.075 301.086 227.754C301.086 237.792 301.086 247.965 301.086 258.003C301.086 267.77 298.236 276.587 291.181 283.641C285.346 289.609 277.883 292.865 270.014 294.9C269.742 294.9 269.607 294.9 269.335 294.9C267.617 295.352 266.893 296.482 267.164 298.291C267.164 298.291 267.3 298.426 267.436 298.426C271.099 298.833 271.913 299.783 271.913 303.581V304.124C271.913 308.329 271.235 309.143 267.164 309.821V312.67C267.164 312.67 267.843 312.805 268.25 312.805C270.285 312.941 271.642 314.297 271.913 316.332C271.913 317.689 271.913 319.045 271.913 320.402C271.778 322.708 270.421 323.793 267.3 324.2V327.048C267.3 327.048 268.114 327.048 268.521 327.048C270.149 327.184 271.506 328.269 271.778 329.897C271.913 331.66 271.913 333.559 271.778 335.323C271.506 337.222 270.014 338.171 267.978 338.171C265.265 338.171 262.551 338.171 259.702 338.171C259.159 338.171 258.752 338.171 257.938 338.171V378.188C257.938 387.005 255.088 394.737 248.711 400.977C240.977 408.437 231.75 411.15 221.303 409.251C193.487 404.232 168.521 392.702 146.811 374.661C120.353 352.55 102.578 324.878 94.1656 291.508C83.4464 249.322 88.3311 208.763 110.041 170.917C130.801 134.699 161.33 110.146 201.086 97.1242C215.332 92.5122 229.986 90.2063 244.912 89.7993C280.461 88.8498 313.026 98.3452 342.062 118.828C377.476 143.923 399.729 177.971 408.277 220.7C411.805 238.334 412.076 255.969 409.362 273.739C404.749 305.073 391.995 332.61 371.235 356.62C356.581 373.711 338.942 387.005 318.589 396.636C303.935 403.554 288.602 407.895 272.456 410.201C269.878 410.608 267.164 410.879 264.315 411.15V408.03C264.315 404.232 264.315 400.299 264.315 396.5C264.315 395.415 264.586 395.144 265.672 395.008C283.718 392.973 300.814 388.09 316.825 379.68C333.107 371.27 347.218 360.011 359.159 346.175C376.119 326.506 387.381 303.988 392.13 278.486C399.322 240.911 392.537 205.643 371.778 173.494C352.103 142.973 324.695 122.219 289.824 111.639C270.692 105.806 251.018 104.449 231.208 107.027C198.779 111.232 170.828 124.932 147.49 147.857C126.052 169.018 112.212 194.384 106.92 223.956C99.3216 266.278 108.277 305.073 134.328 339.392C155.767 367.607 184.396 385.377 218.996 392.973C222.252 393.652 225.509 394.601 228.765 394.059C235.821 392.973 241.113 387.141 241.384 379.951C241.655 373.44 241.384 366.793 241.384 360.282C241.384 353.635 241.384 346.989 241.384 340.342C241.384 338.85 240.977 338.443 239.484 338.443C236.906 338.443 234.193 338.443 231.615 338.443C228.901 338.443 227.544 336.951 227.408 334.238C227.408 333.559 227.408 332.881 227.408 332.203C227.408 328.54 228.358 327.455 232.157 327.048L232.836 326.506ZM250.204 259.088C247.49 267.906 244.776 276.316 242.198 284.726C242.198 284.726 242.47 284.726 242.47 284.862C251.425 274.145 260.38 263.429 269.607 252.442H252.103C255.088 245.117 258.073 238.063 261.058 230.874C256.445 230.874 252.239 230.874 248.033 230.874C246.947 230.874 246.404 231.281 245.997 232.23C242.877 239.826 239.756 247.558 236.771 255.155C236.228 256.376 235.821 257.596 235.278 259.088H250.339H250.204Z"/>
</mask>
<path d="M232.836 326.506V323.657C232.836 323.657 231.886 323.657 231.343 323.521C229.851 323.25 228.63 322.572 228.358 321.08C228.087 318.909 227.951 316.739 228.358 314.704C228.765 312.67 230.665 312.263 232.7 312.398V309.414C228.765 308.872 227.951 307.922 227.951 303.852C227.951 302.903 227.951 301.818 228.087 301.004C228.358 299.376 229.579 298.291 231.343 298.155C232.157 298.155 232.836 298.155 232.7 297.07C232.7 296.121 232.972 295.035 231.479 294.764C226.323 293.815 221.438 292.051 216.825 289.338C204.478 282.42 198.915 271.432 198.779 257.596C198.779 247.558 198.779 237.52 198.779 227.618C198.779 226.533 198.643 225.719 197.558 225.041C196.201 224.091 195.658 222.599 195.522 220.836C195.522 218.394 195.522 215.817 195.522 213.239C195.522 209.712 197.965 207.542 201.493 207.542C206.106 207.542 210.719 207.542 215.332 207.542C215.604 207.542 215.875 207.542 216.418 207.542V164.542C216.418 161.15 217.775 159.93 221.031 159.93C223.202 159.93 225.373 159.93 227.544 159.93C230.665 159.93 232.022 161.286 232.022 164.406C232.022 178.242 232.022 192.078 232.022 205.779V207.678H267.707C267.707 207.678 267.707 206.457 267.707 205.914V164.813C267.707 161.15 268.928 159.93 272.592 159.93H278.697C282.225 159.93 283.446 161.15 283.446 164.677C283.446 178.378 283.446 192.078 283.446 205.779V207.813H287.11C290.773 207.813 294.437 207.813 298.1 207.813C301.764 207.813 304.071 210.119 304.071 213.782C304.071 216.088 304.071 218.394 304.071 220.836C304.071 222.87 303.256 224.498 301.764 225.855C301.357 226.262 301.086 227.075 301.086 227.754C301.086 237.792 301.086 247.965 301.086 258.003C301.086 267.77 298.236 276.587 291.181 283.641C285.346 289.609 277.883 292.865 270.014 294.9C269.742 294.9 269.607 294.9 269.335 294.9C267.617 295.352 266.893 296.482 267.164 298.291C267.164 298.291 267.3 298.426 267.436 298.426C271.099 298.833 271.913 299.783 271.913 303.581V304.124C271.913 308.329 271.235 309.143 267.164 309.821V312.67C267.164 312.67 267.843 312.805 268.25 312.805C270.285 312.941 271.642 314.297 271.913 316.332C271.913 317.689 271.913 319.045 271.913 320.402C271.778 322.708 270.421 323.793 267.3 324.2V327.048C267.3 327.048 268.114 327.048 268.521 327.048C270.149 327.184 271.506 328.269 271.778 329.897C271.913 331.66 271.913 333.559 271.778 335.323C271.506 337.222 270.014 338.171 267.978 338.171C265.265 338.171 262.551 338.171 259.702 338.171C259.159 338.171 258.752 338.171 257.938 338.171V378.188C257.938 387.005 255.088 394.737 248.711 400.977C240.977 408.437 231.75 411.15 221.303 409.251C193.487 404.232 168.521 392.702 146.811 374.661C120.353 352.55 102.578 324.878 94.1656 291.508C83.4464 249.322 88.3311 208.763 110.041 170.917C130.801 134.699 161.33 110.146 201.086 97.1242C215.332 92.5122 229.986 90.2063 244.912 89.7993C280.461 88.8498 313.026 98.3452 342.062 118.828C377.476 143.923 399.729 177.971 408.277 220.7C411.805 238.334 412.076 255.969 409.362 273.739C404.749 305.073 391.995 332.61 371.235 356.62C356.581 373.711 338.942 387.005 318.589 396.636C303.935 403.554 288.602 407.895 272.456 410.201C269.878 410.608 267.164 410.879 264.315 411.15V408.03C264.315 404.232 264.315 400.299 264.315 396.5C264.315 395.415 264.586 395.144 265.672 395.008C283.718 392.973 300.814 388.09 316.825 379.68C333.107 371.27 347.218 360.011 359.159 346.175C376.119 326.506 387.381 303.988 392.13 278.486C399.322 240.911 392.537 205.643 371.778 173.494C352.103 142.973 324.695 122.219 289.824 111.639C270.692 105.806 251.018 104.449 231.208 107.027C198.779 111.232 170.828 124.932 147.49 147.857C126.052 169.018 112.212 194.384 106.92 223.956C99.3216 266.278 108.277 305.073 134.328 339.392C155.767 367.607 184.396 385.377 218.996 392.973C222.252 393.652 225.509 394.601 228.765 394.059C235.821 392.973 241.113 387.141 241.384 379.951C241.655 373.44 241.384 366.793 241.384 360.282C241.384 353.635 241.384 346.989 241.384 340.342C241.384 338.85 240.977 338.443 239.484 338.443C236.906 338.443 234.193 338.443 231.615 338.443C228.901 338.443 227.544 336.951 227.408 334.238C227.408 333.559 227.408 332.881 227.408 332.203C227.408 328.54 228.358 327.455 232.157 327.048L232.836 326.506ZM250.204 259.088C247.49 267.906 244.776 276.316 242.198 284.726C242.198 284.726 242.47 284.726 242.47 284.862C251.425 274.145 260.38 263.429 269.607 252.442H252.103C255.088 245.117 258.073 238.063 261.058 230.874C256.445 230.874 252.239 230.874 248.033 230.874C246.947 230.874 246.404 231.281 245.997 232.23C242.877 239.826 239.756 247.558 236.771 255.155C236.228 256.376 235.821 257.596 235.278 259.088H250.339H250.204Z" stroke="white" stroke-width="0.44" stroke-miterlimit="10" mask="url(#path-3-inside-1_2_77)"/>
</svg>
