<svg width="500" height="500" viewBox="0 0 500 500" fill="none" xmlns="http://www.w3.org/2000/svg">
<path d="M250.067 5.5C385.021 5.5 494.5 114.947 494.5 250C494.5 385.055 385.155 494.5 250.067 494.5C114.976 494.5 5.5 385.051 5.5 250C5.5 114.951 115.11 5.50022 250.067 5.5Z" stroke="#B26EAC" stroke-width="11" stroke-miterlimit="2.61"/>
<path fill-rule="evenodd" clip-rule="evenodd" d="M108.278 298.697C96.3376 292.593 86.0255 287.981 76.3919 282.148C71.5072 279.163 64.0446 273.06 64.723 269.804C65.8085 264.649 72.05 259.63 77.3417 256.646C86.704 251.084 96.8804 247.151 108.414 241.589C94.9808 234.806 83.4475 229.516 72.5927 223.005C68.7935 220.835 64.3159 215.68 64.4516 211.882C64.4516 208.219 69.2006 203.201 73.1355 201.302C126.731 175.935 180.462 150.704 234.33 126.152C238.807 124.117 246.134 124.66 250.883 126.695C304.072 150.976 356.989 175.799 409.77 200.894C413.977 202.929 419.404 208.219 419.404 212.018C419.404 215.951 414.248 221.107 410.042 223.548C399.594 229.788 388.468 234.807 375.578 241.318C388.468 247.422 399.73 252.034 410.313 258.003C414.519 260.309 418.997 265.463 419.54 269.668C419.811 272.924 414.655 277.943 410.72 280.249C400.273 286.353 389.146 291.508 375.713 298.426C388.468 304.53 399.458 309.142 409.77 314.975C413.977 317.417 419.404 322.3 419.404 326.233C419.404 330.167 414.248 335.594 410.042 337.764C357.26 364.894 304.479 391.752 251.29 417.932C246.27 420.374 237.857 420.374 232.701 417.932C179.513 391.752 126.595 365.029 73.8139 337.9C69.6076 335.729 64.5873 330.167 64.5873 326.233C64.5873 322.435 70.1504 317.417 74.3566 314.975C84.533 309.278 95.5235 304.666 108.414 298.697M82.9048 212.425C135.686 239.148 185.754 264.649 236.093 289.744C239.621 291.507 245.863 290.423 249.933 288.524C277.342 275.23 304.343 261.258 331.616 247.557C354.004 236.163 376.528 224.769 400.001 212.832C397.287 210.932 396.066 209.848 394.574 209.034C345.863 186.245 297.287 163.456 248.441 141.21C244.37 139.31 237.722 140.259 233.38 142.294C196.338 159.115 159.703 176.342 122.796 193.434C110.178 199.267 97.6945 205.235 82.9048 212.289M82.6334 269.397C135.958 296.391 186.433 322.029 237.179 347.26C240.435 348.887 246.27 347.666 249.933 345.767C296.88 322.3 343.692 298.561 390.503 274.823C393.353 273.331 396.066 271.432 400.137 268.99C388.875 263.7 378.699 259.63 369.201 254.34C361.602 249.999 355.496 251.084 348.169 255.018C316.283 271.567 283.855 287.303 251.969 303.988C244.777 307.65 239.35 307.921 232.023 304.123C199.323 287.031 166.487 270.618 133.38 254.34C129.309 252.305 123.475 251.084 119.54 252.576C107.735 257.053 96.4733 263.021 82.6334 269.397ZM401.087 326.505C389.282 320.943 379.648 317.417 371.1 312.262C362.281 306.972 355.089 308.328 346.406 312.804C315.741 328.947 284.397 343.868 253.733 360.146C244.777 365.029 237.993 364.351 229.309 359.739C197.83 343.19 166.08 327.319 134.194 311.584C130.259 309.685 124.832 307.378 121.304 308.599C108.821 313.483 97.0161 319.722 82.6334 326.369C135.551 353.228 186.433 379.001 237.315 404.367C239.893 405.588 244.099 405.317 246.677 404.096C297.287 378.73 347.898 353.092 400.815 326.369" fill="#B26EAC"/>
</svg>
