<svg width="500" height="500" viewBox="0 0 500 500" fill="none" xmlns="http://www.w3.org/2000/svg">
<path d="M250.067 5.5C385.021 5.5 494.5 114.947 494.5 250C494.5 385.055 385.155 494.5 250.067 494.5C114.976 494.5 5.5 385.051 5.5 250C5.5 114.951 115.11 5.50022 250.067 5.5Z" stroke="#B26EAC" stroke-width="11" stroke-miterlimit="2.61"/>
<path fill-rule="evenodd" clip-rule="evenodd" d="M395.386 350.518C385.345 352.824 375.576 355.13 365.671 357.301C330.257 365.168 294.708 373.036 259.294 380.633C255.902 381.311 251.967 381.039 248.439 380.225C205.698 370.865 163.093 361.235 120.352 351.875C116.146 350.926 114.653 349.569 114.653 344.957C114.789 287.442 114.789 229.792 114.653 172.277C114.653 168.343 115.875 166.85 119.538 166.037C138.941 161.967 158.208 157.355 177.611 153.421C181.139 152.607 185.21 153.421 188.873 154.235C210.311 158.847 231.75 163.459 253.052 168.614C260.379 170.377 266.892 167.529 273.541 166.172C292.808 162.103 311.94 157.627 331.071 153.557C333.649 153.015 336.499 152.879 339.077 153.557C356.173 157.627 373.134 161.967 390.094 166.037C394.029 166.986 395.386 168.614 395.386 172.819C395.25 230.198 395.386 287.713 395.386 345.093V350.518ZM310.176 195.472C294.301 198.999 279.511 202.39 264.585 205.51C260.244 206.459 255.495 207.545 251.288 206.595C216.146 199.135 180.868 191.132 145.725 183.264C139.348 181.908 132.971 180.551 126.322 179.194C126.322 181.093 126.051 182.314 126.051 183.671C126.051 234.946 126.051 286.221 126.051 337.632C126.051 340.616 127.001 341.837 129.85 342.38C169.199 351.061 208.548 359.878 247.896 368.56C251.153 369.238 254.816 370.052 257.937 369.373C273.948 366.118 289.959 362.319 305.97 358.928C309.362 358.25 310.176 356.623 310.176 353.503C310.04 341.023 310.176 328.408 310.176 315.928C310.176 314.707 309.904 313.487 309.769 312.13C308.412 312.13 307.326 312.13 306.377 312.537C293.351 315.385 280.325 318.505 267.164 321.218C262.279 322.304 256.851 323.931 252.102 322.982C232.157 319.048 212.347 314.3 192.401 309.959C189.145 309.281 188.33 307.925 188.466 304.805C188.466 284.593 188.466 264.382 188.466 244.034C188.466 242.678 188.602 241.186 188.737 239.015C194.301 240.236 199.457 241.457 204.613 242.678C220.488 246.205 236.363 249.731 252.238 253.123C254.002 253.53 255.902 253.53 257.666 253.123C273.948 249.596 290.23 245.934 306.512 242.407C309.226 241.864 310.176 240.643 310.176 237.794C310.04 228.977 310.176 220.161 310.176 211.208V195.201V195.472ZM384.124 179.33C382.089 179.601 381.003 179.602 379.918 179.873C361.736 183.942 343.554 188.147 325.237 191.945C322.116 192.623 321.438 193.98 321.573 196.829C321.573 213.514 321.573 230.199 321.573 246.883C321.573 250.003 320.623 251.224 317.503 251.902C299.05 255.836 280.732 259.905 262.415 264.11C257.123 265.331 252.103 265.331 246.946 264.11C236.363 261.533 225.508 259.227 214.925 256.785C210.176 255.7 205.291 254.75 200.271 253.801C200.271 255.564 199.999 256.65 199.999 257.735C199.999 270.35 199.999 283.101 199.999 295.716C199.999 298.972 201.085 300.057 204.206 300.735C219.267 303.855 234.192 307.383 249.253 310.503C252.238 311.045 255.495 311.723 258.48 311.045C272.998 308.061 287.381 304.669 301.899 301.413C308.276 299.921 314.789 298.565 321.845 297.073V354.723C323.202 354.588 324.016 354.452 324.83 354.317C343.012 350.247 361.193 346.178 379.511 342.38C383.174 341.566 384.26 340.209 384.26 336.547C384.26 285.95 384.26 235.353 384.26 184.756V179.059L384.124 179.33ZM149.66 171.327C149.66 171.327 149.66 172.005 149.66 172.277C151.153 172.684 152.645 173.226 154.002 173.497C184.938 180.415 215.739 187.062 246.539 194.116C252.374 195.472 257.937 195.472 263.771 193.98C270.013 192.488 276.254 191.132 282.496 189.775C283.853 189.504 285.21 188.961 287.652 188.283C285.617 187.605 284.667 187.198 283.853 187.062C252.374 180.008 220.759 172.955 189.145 165.901C186.295 165.223 183.174 164.002 180.325 164.545C170.013 166.444 159.837 169.021 149.524 171.191M287.652 174.854C305.834 182.179 316.282 182.585 337.041 177.702C337.991 177.431 338.941 177.16 339.891 177.024C347.354 175.396 354.816 173.633 362.957 171.869C361.736 171.191 361.329 170.92 360.922 170.784C358.887 170.241 356.716 169.834 354.816 169.156C342.062 164.544 329.579 164.273 316.553 168.342C307.055 171.191 297.286 172.819 287.516 174.989" fill="#B26EAC"/>
</svg>
