<svg width="500" height="500" viewBox="0 0 500 500" fill="none" xmlns="http://www.w3.org/2000/svg">
<path d="M250.067 5.5C385.021 5.5 494.5 114.947 494.5 250C494.5 385.055 385.155 494.5 250.067 494.5C114.976 494.5 5.5 385.051 5.5 250C5.5 114.951 115.11 5.50022 250.067 5.5Z" stroke="#B26EAC" stroke-width="11" stroke-miterlimit="2.61"/>
<path fill-rule="evenodd" clip-rule="evenodd" d="M256.038 179.464V188.417C256.038 196.149 256.038 203.745 256.038 211.477C256.038 213.783 256.717 214.462 259.023 214.462C279.919 214.462 300.95 214.462 321.981 214.462C329.037 214.462 336.092 214.462 343.284 214.462C360.651 214.326 373.677 227.755 373.406 245.661C373.406 253.528 373.406 261.396 373.406 269.263V272.926C377.205 272.926 380.597 272.926 383.854 272.926C396.065 273.062 405.563 278.352 411.126 289.475C412.754 292.731 413.976 296.529 413.976 300.056C414.247 309.958 414.518 320.132 413.569 330.034C412.483 342.649 401.628 353.773 388.874 354.451C374.356 355.265 359.837 354.722 345.183 354.451C342.47 354.451 339.756 353.23 337.178 352.009C327.137 347.126 321.303 338.987 320.624 327.728C320.082 318.775 319.946 309.687 320.624 300.734C321.845 284.32 334.057 273.333 350.611 273.062C354.139 273.062 357.531 273.062 360.923 273.062C361.194 272.519 361.33 272.248 361.33 271.977C361.33 262.345 361.737 252.715 361.33 243.219C360.787 232.91 353.324 226.263 343.148 226.263C320.217 226.263 297.151 226.263 274.084 226.263C268.25 226.263 262.28 226.263 256.174 226.263V273.062C259.837 273.062 263.229 273.062 266.757 273.062C281.276 273.333 292.809 281.201 295.794 295.172C298.508 307.516 298.372 320.674 295.794 333.018C293.08 345.905 282.904 353.908 269.878 354.586C256.852 355.265 243.691 355.4 230.665 354.586C215.332 353.772 204.478 342.65 203.664 327.321C203.121 317.419 203.257 307.517 204.071 297.614C205.02 285.677 216.554 274.554 228.494 273.469C233.65 273.062 238.942 272.926 244.369 272.655V226.127H239.349C212.212 226.127 185.21 226.127 158.073 226.127C146.947 226.127 139.62 232.774 139.077 243.897C138.67 253.121 139.077 262.346 139.077 271.57C139.077 271.977 139.213 272.248 139.349 272.655C144.641 272.926 149.932 272.926 155.088 273.469C167.164 274.554 178.833 285.813 179.512 297.885C180.19 308.33 180.19 319.046 179.512 329.491C178.698 342.107 166.893 353.637 154.274 354.451C144.369 354.994 134.464 354.994 124.559 354.858C119.132 354.858 113.297 354.858 108.141 353.637C95.3868 350.381 87.3814 340.75 86.703 327.728C86.1602 317.555 86.2959 307.381 87.11 297.207C88.0598 285.27 99.593 274.554 111.533 273.469C116.689 272.926 121.71 272.926 127.137 272.655C127.137 271.434 127.137 270.213 127.273 269.128C127.408 259.497 127.137 249.73 127.816 239.964C128.765 226.534 140.841 215.004 154.274 214.733C172.049 214.326 189.824 214.462 207.598 214.462C218.996 214.462 230.258 214.462 241.655 214.462C243.284 214.462 244.505 214.462 244.505 212.156C244.505 201.711 244.505 191.266 244.505 180.685C244.505 180.278 244.369 180.007 244.233 179.193H234.193C224.152 179.193 215.875 175.666 209.634 167.527C206.106 162.915 203.799 157.625 203.664 151.656C203.664 141.754 203.392 131.852 204.071 122.085C205.02 110.012 216.554 98.7534 228.63 97.6682C235.55 96.9899 242.605 97.1259 249.525 97.1259C256.309 97.1259 263.094 96.8544 269.878 97.397C285.075 98.7535 295.93 109.334 296.879 124.391C297.558 134.293 297.286 144.467 296.608 154.37C295.658 166.714 284.261 177.294 271.913 178.515C266.757 179.058 261.737 179.058 256.174 179.329M250.068 167.392C255.631 167.392 261.194 167.392 266.622 167.392C277.748 167.392 285.21 159.795 285.21 148.672C285.21 141.754 285.21 134.972 285.21 128.054C285.21 116.524 277.748 108.927 266.079 108.791C255.36 108.791 244.505 108.791 233.786 108.791C222.388 108.791 214.925 116.523 214.79 127.918C214.79 134.836 214.79 141.754 214.79 148.536C214.79 159.795 222.388 167.392 233.65 167.392H249.932H250.068ZM250.339 284.592C244.776 284.592 239.077 284.592 233.514 284.592C222.524 284.592 215.061 292.188 214.925 303.176C214.925 310.365 214.925 317.555 214.925 324.744C214.925 335.46 222.524 343.192 233.243 343.192C244.505 343.192 255.767 343.192 267.029 343.192C277.748 343.192 285.21 335.324 285.346 324.608C285.346 317.554 285.346 310.365 285.346 303.311C285.346 292.188 277.748 284.592 266.757 284.592C261.33 284.592 255.902 284.592 250.475 284.592M367.3 284.592C361.601 284.592 356.038 284.456 350.475 284.592C339.892 284.863 332.565 291.781 332.157 302.226C331.886 309.958 331.886 317.826 332.157 325.558C332.429 335.189 338.535 342.378 348.033 342.921C360.651 343.599 373.27 343.599 385.889 342.921C395.387 342.514 401.628 336.274 402.171 326.779C402.714 318.368 402.714 309.687 402.171 301.141C401.493 291.374 395.115 285.406 385.346 284.728C379.376 284.321 373.27 284.728 367.3 284.728M133.243 284.592C127.544 284.592 121.845 284.592 116.011 284.592C105.699 284.863 98.6432 290.832 97.9648 301.005C97.4221 309.551 97.4221 318.097 97.9648 326.643C98.6432 336.274 105.02 342.649 114.79 343.056C126.73 343.599 138.806 343.599 150.882 343.056C161.33 342.649 167.843 335.189 168.114 324.608C168.114 317.554 168.114 310.501 168.114 303.311C168.114 291.917 160.651 284.592 149.254 284.456C143.962 284.456 138.535 284.456 133.243 284.456" fill="#B26EAC"/>
</svg>
