<svg width="500" height="500" viewBox="0 0 500 500" fill="none" xmlns="http://www.w3.org/2000/svg">
<path d="M250.067 5.5C385.021 5.5 494.5 114.947 494.5 250C494.5 385.055 385.155 494.5 250.067 494.5C114.976 494.5 5.5 385.051 5.5 250C5.5 114.951 115.11 5.50026 250.067 5.5Z" stroke="#B26EAC" stroke-width="11" stroke-miterlimit="2.61"/>
<path fill-rule="evenodd" clip-rule="evenodd" d="M161.194 266.143H146.676C136.635 266.143 131.208 261.26 129.987 251.357C127.544 232.231 124.831 213.105 122.253 193.978C119.675 174.716 117.232 155.318 114.654 136.056C114.247 133.208 113.84 130.63 111.262 128.324C106.106 123.712 106.513 107.434 111.262 102.551C113.569 100.109 116.554 99.1598 119.81 99.1598C151.153 99.1598 182.632 99.1598 213.976 99.1598C221.438 99.1598 226.052 104.043 226.052 111.64C226.052 115.438 226.187 119.236 225.509 122.898C225.102 125.069 223.202 127.103 222.117 129.274C221.574 130.359 220.624 131.58 220.624 132.665C220.624 172.41 220.624 212.155 220.624 251.9C220.624 252.578 220.624 253.256 220.76 254.206C221.845 254.206 222.795 254.206 224.288 254.342C224.288 249.865 224.288 245.389 224.288 241.048C224.288 233.452 227.68 229.925 235.278 229.925H391.045C400 229.925 407.056 234.808 408.82 242.405C411.126 252.036 407.734 259.903 399.457 264.38C398.643 264.786 397.829 265.736 397.694 266.55C395.658 292.866 379.647 309.55 358.345 322.573C355.902 324.065 353.189 325.557 350.475 326.642C348.44 327.592 347.897 328.813 347.897 330.847C347.897 353.636 347.897 376.425 347.897 399.214C347.897 405.454 345.862 410.88 340.163 413.864C337.449 415.221 334.193 415.899 331.072 415.899C285.075 415.899 239.078 415.899 193.08 415.899C188.738 415.899 185.482 414.407 183.718 410.337C181.954 406.268 182.904 402.605 185.889 399.35C196.472 387.548 205.156 374.797 209.634 359.469C212.483 349.567 212.89 339.8 209.091 330.033C208.141 327.456 206.513 325.964 204.071 324.607C190.095 317.282 178.155 307.516 169.607 294.087C164.451 285.948 161.873 277.673 160.787 265.872M386.025 266.414H173.27C173.542 276.452 177.883 286.762 185.753 295.579C197.286 308.737 212.212 316.875 228.494 322.573C251.425 330.305 275.034 332.339 299.186 329.491C316.689 327.456 333.379 322.98 348.983 314.705C361.33 308.058 372.185 299.784 379.512 287.576C383.447 281.064 385.889 274.146 386.025 266.414ZM208.955 254.342V132.258H126.187C126.187 133.615 126.187 134.7 126.459 135.785C128.087 148.265 129.715 160.88 131.479 173.359C134.871 198.726 138.263 224.092 141.656 249.458C142.334 253.935 142.605 254.342 147.219 254.342H209.091H208.955ZM198.236 404.233H330.122C335.821 404.233 336.364 403.691 336.364 397.993V336.409C336.364 335.324 336.228 334.238 336.092 333.153C298.101 345.497 260.38 345.497 222.795 333.153C227.273 361.368 214.383 383.072 197.965 404.233M236.364 241.726C236.364 244.846 236.635 247.695 236.364 250.543C235.957 253.799 237.178 254.477 240.299 254.477C290.231 254.477 340.299 254.477 390.231 254.477C391.181 254.477 392.13 254.477 392.945 254.477C395.794 254.07 397.558 252.443 397.829 249.594C398.372 244.575 396.201 241.998 391.181 241.998H236.364V241.726ZM120.217 120.05H214.247V111.097H120.217V120.05Z" fill="#B26EAC"/>
</svg>
