<svg width="500" height="500" viewBox="0 0 500 500" fill="none" xmlns="http://www.w3.org/2000/svg">
<path d="M250.067 5.5C385.021 5.5 494.5 114.947 494.5 250C494.5 385.055 385.155 494.5 250.067 494.5C114.976 494.5 5.50022 385.051 5.5 250C5.5 114.951 115.11 5.50022 250.067 5.5Z" stroke="#B26EAC" stroke-width="11" stroke-miterlimit="2.61"/>
<path fill-rule="evenodd" clip-rule="evenodd" d="M243.691 319.994C245.455 323.792 246.269 326.913 248.168 329.49C249.118 330.846 251.696 331.388 253.46 331.524C273.677 331.524 293.759 331.253 313.976 331.118C320.624 331.118 321.574 331.796 321.574 338.578C321.71 351.6 321.845 364.487 321.845 377.509C321.845 383.885 320.896 384.834 314.518 384.97C251.289 385.512 188.196 386.055 125.102 386.733C120.082 386.733 118.318 384.563 118.182 379.815C117.639 300.868 116.825 221.921 116.147 142.974C116.147 138.09 117.911 136.055 122.931 136.055C135.957 136.055 148.847 135.919 161.873 135.784C166.215 135.784 168.25 137.412 168.25 142.024C168.25 156.131 168.25 170.103 168.657 184.075C168.657 188.415 167.029 190.179 162.822 190.179C158.48 190.179 154.003 190.179 148.711 190.179C151.018 193.841 152.646 197.232 154.953 199.945C155.902 201.166 158.209 201.574 159.973 201.574C175.17 201.574 190.502 201.302 205.835 201.166C212.076 201.166 212.89 201.98 212.89 208.085C213.026 221.242 213.162 234.4 213.297 247.558C213.297 253.798 212.212 254.748 205.97 254.883C203.392 254.883 200.679 254.883 198.101 255.018C197.829 255.018 197.558 255.29 197.286 255.561C200.95 264.243 204.206 266.413 213.162 266.277C231.886 266.142 250.746 266.006 269.471 265.735C276.12 265.735 276.934 266.549 277.069 273.331C277.069 286.489 277.341 299.647 277.341 312.805C277.341 318.909 276.527 319.723 270.285 319.723C261.737 319.723 253.189 319.859 243.691 319.994ZM126.73 377.509C166.079 377.238 205.02 376.831 244.233 376.424C244.776 372.354 245.59 368.556 245.726 364.758C246.947 347.666 241.927 331.796 232.429 318.095C218.86 298.29 204.206 279.3 189.145 260.58C165.536 231.009 142.741 201.031 126.866 166.576C126.594 165.898 125.916 165.355 124.831 163.863C125.373 235.621 126.052 306.43 126.594 377.645M253.189 340.07C253.189 352.55 253.46 364.487 253.46 376.559C272.999 376.424 292.673 376.288 312.755 376.017C312.755 363.809 312.483 351.736 312.483 339.528C292.266 339.663 272.32 339.934 253.189 340.07ZM212.619 274.687C221.438 287.031 229.58 298.426 237.856 309.685C238.67 310.77 240.841 311.313 242.334 311.448C249.797 311.584 257.395 311.448 264.993 311.448C267.843 311.448 269.064 310.635 269.064 307.515C268.928 297.748 268.793 287.981 268.793 278.079C268.793 275.094 267.843 274.145 264.858 274.145C256.988 274.416 249.118 274.281 241.248 274.417C232.022 274.417 222.795 274.552 212.89 274.687M204.478 246.337C204.478 233.722 204.342 221.785 204.206 209.848C189.959 209.848 176.255 210.119 161.194 210.255C170.285 222.327 178.833 233.451 187.246 244.574C187.924 245.523 189.552 246.473 190.638 246.473C195.115 246.745 199.593 246.473 204.342 246.473M159.973 181.497C159.973 168.746 159.702 156.674 159.702 144.601C148.711 144.601 138.128 144.736 126.052 144.872C132.022 157.216 137.585 168.611 143.284 180.005C143.691 180.819 145.183 181.497 146.269 181.497C150.746 181.497 155.224 181.497 159.973 181.497Z" fill="#B26EAC"/>
<path fill-rule="evenodd" clip-rule="evenodd" d="M228.222 134.97C241.519 134.97 254.952 134.699 268.249 134.563C274.627 134.563 275.712 135.513 275.848 141.752C275.984 155.046 276.119 168.339 276.255 181.633C276.255 187.873 275.305 188.822 268.792 188.958C241.791 189.229 214.79 189.501 187.788 189.637C181.411 189.637 180.325 188.687 180.325 182.583C180.19 169.018 180.325 155.589 179.918 142.024C179.783 136.869 181.954 135.242 186.838 135.242C200.678 135.242 214.518 135.106 228.358 134.97H228.222ZM188.738 181.226C214.518 180.955 239.756 180.819 264.857 180.412C265.807 180.412 267.435 177.971 267.435 176.614C267.571 166.983 267.3 157.352 267.435 147.721C267.435 144.33 266.486 143.244 262.958 143.244C240.027 143.651 217.096 143.788 194.165 143.923C192.266 143.923 190.502 144.194 188.467 144.33C188.467 156.809 188.602 168.611 188.738 181.226Z" fill="#B26EAC"/>
<path fill-rule="evenodd" clip-rule="evenodd" d="M335.414 188.415C321.846 188.415 308.413 188.687 294.844 188.687C288.738 188.687 287.653 187.737 287.653 181.768C287.517 168.068 287.517 154.367 287.246 140.667C287.246 136.19 289.146 134.292 293.487 134.292C321.167 134.156 348.983 133.885 376.662 133.614C381.004 133.614 383.04 135.376 383.04 139.853C383.04 153.689 383.175 167.525 383.447 181.361C383.447 186.109 381.547 188.009 376.798 188.009C362.958 188.009 349.118 188.144 335.278 188.279M296.201 179.869C322.66 179.598 348.711 179.462 374.627 179.191C374.627 166.711 374.356 154.775 374.356 142.838C348.033 143.109 321.981 143.244 295.93 143.516C295.93 155.86 296.065 167.797 296.201 179.869Z" fill="#B26EAC"/>
<path fill-rule="evenodd" clip-rule="evenodd" d="M336.364 265.057C350.068 265.057 363.773 265.057 377.341 264.65C382.226 264.514 384.261 266.413 384.261 271.432C384.261 285.133 384.397 298.834 384.533 312.398C384.533 316.739 382.904 318.773 378.291 318.773C350.476 318.909 322.524 319.18 294.709 319.452C290.503 319.452 288.603 317.825 288.603 313.484C288.603 299.648 288.603 285.811 288.196 271.975C288.06 266.684 290.367 265.192 295.116 265.192C308.82 265.192 322.389 265.057 336.093 264.921M297.423 311.041C303.529 311.041 309.092 311.042 314.655 310.906C333.651 310.906 352.511 310.635 371.371 310.363C372.999 310.363 375.849 308.736 375.849 307.922C375.984 296.663 375.849 285.269 375.849 273.603C349.119 273.874 323.203 274.146 297.151 274.281C297.151 286.49 297.287 298.29 297.423 311.041Z" fill="#B26EAC"/>
<path fill-rule="evenodd" clip-rule="evenodd" d="M272.456 200.353C286.296 200.353 300.135 200.352 313.975 199.945C318.589 199.945 320.353 201.709 320.353 206.05C320.353 219.886 320.624 233.722 320.76 247.694C320.76 252.035 318.996 253.934 314.382 253.934C286.431 253.934 258.616 254.205 230.665 254.612C226.458 254.612 224.695 252.984 224.695 248.779C224.695 234.672 224.695 220.7 224.287 206.728C224.287 202.387 225.916 200.895 230.258 200.895C244.233 200.895 258.344 200.76 272.32 200.624L272.456 200.353ZM311.669 245.252C311.669 232.908 311.397 220.836 311.397 208.763C285.074 209.034 259.023 209.305 233.107 209.441C233.107 221.785 233.243 233.722 233.378 245.93C259.566 245.659 285.346 245.388 311.669 245.252Z" fill="#B26EAC"/>
<path fill-rule="evenodd" clip-rule="evenodd" d="M385.074 357.026C385.074 363.944 385.074 370.997 385.21 378.051C385.345 382.527 383.446 384.427 378.968 384.427C365.807 384.427 352.645 384.427 339.484 384.699C335.142 384.699 332.971 383.071 332.971 378.594C332.971 364.758 332.835 350.922 332.564 337.086C332.564 332.338 334.328 330.574 339.077 330.574C352.238 330.574 365.4 330.575 378.561 330.303C383.175 330.303 384.938 332.202 384.803 336.543C384.803 343.325 384.803 350.243 384.803 357.026H385.074ZM376.39 375.474C376.39 362.994 376.119 351.057 376.119 338.984C364.45 338.984 353.188 339.12 341.791 339.256C341.791 351.6 342.062 363.537 342.062 375.745C353.595 375.745 364.721 375.609 376.39 375.474Z" fill="#B26EAC"/>
<path fill-rule="evenodd" clip-rule="evenodd" d="M357.802 199.81C364.451 199.81 371.099 199.81 377.748 199.539C381.683 199.403 383.718 200.895 383.718 204.965C383.718 219.208 383.854 233.315 384.125 247.558C384.125 251.492 382.361 253.256 378.426 253.256C364.858 253.256 351.425 253.391 337.856 253.662C333.921 253.662 332.022 252.17 331.886 248.101C331.886 233.722 331.615 219.344 331.479 204.965C331.479 201.574 332.972 199.809 336.635 199.945C343.691 199.945 350.611 199.945 357.666 199.945M340.57 208.491C340.57 220.699 340.841 232.772 340.841 244.98C352.375 244.98 363.636 244.845 375.17 244.71C375.17 232.501 375.034 220.564 374.898 208.22C363.365 208.22 352.103 208.355 340.57 208.491Z" fill="#B26EAC"/>
</svg>
