<svg width="500" height="500" viewBox="0 0 500 500" fill="none" xmlns="http://www.w3.org/2000/svg">
<path d="M250.067 5.5C385.021 5.5 494.5 114.947 494.5 250C494.5 385.055 385.155 494.5 250.067 494.5C114.976 494.5 5.5 385.051 5.5 250C5.5 114.951 115.11 5.50022 250.067 5.5Z" stroke="#B26EAC" stroke-width="11" stroke-miterlimit="2.61"/>
<path fill-rule="evenodd" clip-rule="evenodd" d="M379.782 245.93C379.782 290.558 379.647 335.187 379.918 379.815C379.918 388.497 377.611 391.752 368.385 391.752C290.23 391.48 212.075 391.48 134.056 391.752C125.508 391.752 122.659 388.904 122.795 380.494C122.93 290.966 123.066 201.302 122.795 111.774C122.795 102.414 126.458 100.243 134.871 100.243C212.347 100.515 289.823 100.244 367.299 100.379C379.104 100.379 379.782 101.057 379.782 112.994V245.93ZM162.686 112.859C162.686 112.859 162.415 113.673 162.415 114.08C180.189 120.862 197.693 128.051 215.739 134.291C223.066 136.869 225.644 140.26 225.508 148.128C225.237 207.542 225.373 267.091 225.373 326.641C225.373 345.089 216.824 357.478 199.728 363.808C187.245 368.42 174.762 373.304 162.279 377.916C162.415 378.323 162.55 378.73 162.686 379.137H340.434C322.795 371.133 305.02 364.215 286.974 357.84C280.325 355.534 277.34 352.143 277.34 344.546C277.747 278.893 277.611 213.103 277.34 147.45C277.34 140.396 279.647 137.14 286.295 134.834C304.477 128.459 322.523 121.27 340.569 114.487C340.569 114.08 340.298 113.537 340.162 113.13H162.822L162.686 112.859ZM368.114 113.266C355.359 118.014 344.504 121.948 333.649 126.289C332.021 126.967 329.986 129.136 329.986 130.629C329.715 147.178 329.85 163.863 329.85 181.09C341.791 178.92 352.645 177.292 363.5 174.85C365.4 174.443 367.978 171.324 367.978 169.289C368.385 151.112 368.114 132.935 368.114 113.13M329.715 310.906C329.715 328.133 329.715 344.14 329.715 360.146C329.715 361.91 331.207 364.623 332.564 365.165C343.826 369.777 355.359 373.982 367.435 378.459V317.688C354.816 315.382 342.74 313.212 329.579 310.906M329.986 302.088C342.74 304.259 354.952 306.43 367.435 308.6V251.084H329.986V302.088ZM173.134 181.09C173.134 164.134 173.134 148.128 172.998 132.121C172.998 130.222 171.37 127.237 169.742 126.559C158.751 122.083 147.625 118.014 135.278 113.402C135.278 133.071 135.142 151.248 135.549 169.425C135.549 171.459 138.67 174.715 140.976 175.122C151.153 177.428 161.465 178.92 173.27 180.954M173.134 310.906C159.972 313.348 148.032 315.518 135.685 317.824V378.459C147.625 373.982 158.751 369.913 169.877 365.301C171.506 364.623 172.998 361.638 173.134 359.739C173.405 344.004 173.27 328.269 173.27 310.906M367.571 183.396C356.173 185.431 345.318 187.059 334.599 189.365C332.7 189.771 329.986 192.892 329.986 194.791C329.579 210.119 329.85 225.447 329.85 241.047H367.706V183.396H367.571ZM172.591 302.088V250.814H135.956V308.735C148.711 306.429 160.515 304.259 172.591 302.088ZM135.142 240.911H172.455V190.043C159.972 187.737 148.168 185.702 135.82 183.396C135.413 185.566 135.142 186.788 135.142 188.008C135.142 205.236 135.142 222.598 135.142 240.911ZM321.302 360.146C321.302 343.868 321.302 328.269 321.031 312.669C321.031 311.177 318.181 308.735 316.282 308.328C306.648 306.294 297.014 304.937 286.974 303.174V347.26C297.15 351.465 307.326 355.534 317.503 359.739C318.046 360.01 318.724 359.875 321.302 360.282M286.567 189.229C298.778 186.923 309.633 184.888 320.488 182.854V131.307C310.04 135.241 300.542 138.497 291.18 142.431C289.145 143.245 286.838 146.229 286.702 148.263C286.295 161.557 286.567 174.715 286.567 189.365M286.838 293.95C298.371 296.12 309.226 298.019 320.624 300.054V250.814H286.838V293.95ZM182.089 360.96C193.487 356.619 203.527 352.957 213.432 349.023C214.789 348.48 216.282 346.446 216.282 344.954C216.417 331.253 216.417 317.417 216.417 303.038C205.698 304.937 196.336 306.294 186.974 308.193C185.074 308.6 182.36 311.041 182.36 312.534C182.089 328.133 182.225 343.868 182.225 360.824M182.632 131.443V183.125C193.894 185.16 204.749 187.058 216.417 189.229C216.417 174.579 216.553 161.421 216.282 148.128C216.282 146.229 214.246 143.515 212.483 142.701C202.849 138.768 192.944 135.377 182.632 131.443ZM320.624 241.182V191.942C308.819 194.112 297.829 196.147 286.974 198.182V241.182H320.624ZM182.632 300.189C194.029 298.019 204.884 295.985 215.875 293.95V250.949H182.632V300.189ZM182.496 240.911H216.01V198.046C204.748 196.012 193.894 194.112 182.496 192.078V240.911Z" fill="#B26EAC"/>
</svg>
