<svg width="500" height="500" viewBox="0 0 500 500" fill="none" xmlns="http://www.w3.org/2000/svg">
<path d="M205.594 241.051V219.711C205.594 208.223 214.945 198.873 226.435 198.873H283.237C288.835 198.873 293.909 201.116 297.663 204.743C301.416 201.138 306.49 198.873 312.088 198.873H368.89C380.38 198.873 389.732 208.223 389.732 219.711V241.051H437.979C439.341 241.051 440.62 241.324 441.941 241.449V188.434C441.941 171.035 427.788 156.885 410.385 156.885H184.94C167.537 156.885 153.384 171.035 153.384 188.434V241.449C154.704 241.324 155.984 241.051 157.346 241.051H205.594Z" fill="black"/>
<path d="M226.436 211.702C222.012 211.702 218.427 215.307 218.427 219.709V241.05H291.267V219.709C291.267 215.286 287.66 211.702 283.257 211.702H226.436Z" fill="black"/>
<path d="M312.089 211.702C307.665 211.702 304.08 215.307 304.08 219.709V241.05H376.92V219.709C376.92 215.286 373.313 211.702 368.91 211.702H312.089Z" fill="black"/>
<path d="M470.33 286.226C470.33 271.783 460.748 259.666 447.643 255.515C446.804 255.411 446.029 255.18 445.316 254.782C442.946 254.237 440.514 253.859 437.977 253.859L157.346 253.88C139.503 253.88 124.993 268.407 124.993 286.247V327.649H470.332L470.33 286.226Z" fill="black"/>
<path d="M132.394 373.137C132.394 373.598 132.771 373.976 133.232 373.976H158.876C159.337 373.976 159.714 373.598 159.714 373.137V368.84H132.394V373.137Z" fill="black"/>
<path d="M107.53 340.461L107.95 356.455L124.011 356.434C124.64 356.225 125.29 356.036 125.982 356.036C126.674 356.036 127.303 356.225 127.932 356.434L164.353 356.393C164.919 356.225 165.485 356.036 166.114 356.036C166.723 356.036 167.289 356.225 167.855 356.393L428.883 356.099C428.987 356.099 429.092 356.036 429.197 356.036C429.302 356.036 429.407 356.099 429.512 356.099L469.224 356.057C469.266 356.057 469.287 356.036 469.329 356.036C469.371 356.036 469.392 356.057 469.434 356.057L487.361 356.036V340.041L107.53 340.461Z" fill="black"/>
<path d="M435.612 373.137C435.612 373.598 435.989 373.976 436.451 373.976H462.115C462.576 373.976 462.954 373.598 462.954 373.137V368.84H435.633L435.612 373.137Z" fill="black"/>
<path d="M63.7886 354.505H31.8339C29.0242 354.505 26.529 356.203 25.4178 358.781L18.8337 374H76.8536L70.2696 358.781C69.1793 356.203 66.619 354.505 63.7886 354.505Z" fill="black"/>
<path d="M70.1224 125H25.5031L12 190.885H83.6271L70.1224 125Z" fill="black"/>
<path d="M41.3943 203.695H54.2055V341.673H41.3943V203.695Z" fill="black"/>
</svg>
