<svg width="500" height="500" viewBox="0 0 500 500" fill="none" xmlns="http://www.w3.org/2000/svg">
<path d="M206.842 241.614V220.92C206.842 209.781 215.949 200.715 227.138 200.715H282.452C287.904 200.715 292.845 202.89 296.5 206.407C300.155 202.911 305.096 200.715 310.548 200.715H365.862C377.051 200.715 386.158 209.781 386.158 220.92V241.614H433.141C434.468 241.614 435.714 241.878 437 242V190.592C437 173.721 423.218 160 406.27 160H186.73C169.782 160 156 173.721 156 190.592V242C157.286 241.878 158.532 241.614 159.859 241.614H206.842Z" fill="#B26EAC"/>
<path d="M226.807 214C222.495 214 219 217.44 219 221.64V242H290V221.64C290 217.42 286.485 214 282.193 214H226.807Z" fill="#B26EAC"/>
<path d="M310.807 214C306.495 214 303 217.44 303 221.64V242H374V221.64C374 217.42 370.485 214 366.193 214H310.807Z" fill="#B26EAC"/>
<path d="M464.998 286.582C464.998 272.489 455.647 260.666 442.859 256.616C442.04 256.514 441.283 256.289 440.588 255.9C438.276 255.368 435.902 255 433.426 255L159.572 255.02C142.159 255.02 128 269.195 128 286.602V327H465L464.998 286.582Z" fill="#B26EAC"/>
<path d="M135 371.184C135 371.633 135.387 372 135.86 372H162.14C162.613 372 163 371.633 163 371.184V367H135V371.184Z" fill="#B26EAC"/>
<path d="M111 338.434L111.41 355L127.098 354.978C127.712 354.761 128.347 354.566 129.023 354.566C129.699 354.566 130.313 354.761 130.927 354.978L166.502 354.935C167.055 354.761 167.608 354.566 168.222 354.566C168.816 354.566 169.369 354.761 169.922 354.935L424.881 354.631C424.983 354.631 425.086 354.566 425.188 354.566C425.291 354.566 425.393 354.631 425.495 354.631L464.285 354.587C464.326 354.587 464.346 354.566 464.387 354.566C464.428 354.566 464.449 354.587 464.49 354.587L482 354.566V338L111 338.434Z" fill="#B26EAC"/>
<path d="M432 371.184C432 371.633 432.359 372 432.798 372H457.202C457.641 372 458 371.633 458 371.184V367H432.02L432 371.184Z" fill="#B26EAC"/>
<path d="M68.1646 353H36.7716C34.0113 353 31.56 354.655 30.4683 357.168L24 372H81L74.5317 357.168C73.4605 354.655 70.9453 353 68.1646 353Z" fill="#B26EAC"/>
<path d="M74.8021 129H31.1963L18 193H88L74.8021 129Z" fill="#B26EAC"/>
<path d="M46 205H59V341H46V205Z" fill="#B26EAC"/>
</svg>
