<svg width="500" height="500" viewBox="0 0 500 500" fill="none" xmlns="http://www.w3.org/2000/svg">
<path d="M449.06 486.149H439.509V437.554L354.132 434C351.359 433.904 349.212 431.575 349.309 428.814C349.405 426.053 351.744 423.916 354.518 424.012L439.487 427.566V404.996L353.987 399.57C351.213 399.402 349.115 397.025 349.284 394.264C349.453 391.503 351.84 389.414 354.614 389.582L439.484 394.96V372.343L353.768 362.907C351.019 362.594 349.017 360.121 349.33 357.384C349.644 354.647 352.128 352.654 354.878 352.966L439.507 362.282V339.833L353.717 329.413C350.967 329.077 348.99 326.58 349.327 323.843C349.665 321.106 352.173 319.137 354.923 319.473L439.478 329.749V307.252L353.546 294.143C350.797 293.734 348.915 291.189 349.325 288.452C349.735 285.715 352.292 283.842 355.041 284.251L439.479 297.144V274.671L353.38 258.489C350.655 257.984 348.846 255.367 349.377 252.654C349.883 249.941 352.512 248.14 355.237 248.669L439.484 264.491V242.066L353.212 222.81C350.511 222.21 348.799 219.521 349.426 216.832C350.029 214.143 352.73 212.438 355.431 213.062L439.505 231.838V209.34L352.826 181.825C350.197 180.985 348.726 178.175 349.57 175.559C350.414 172.942 353.236 171.477 355.864 172.317L439.531 198.872V152.869L315.683 97.9346V486.247H307.627L307.603 52.6778L227.654 10.8765V486.15H224.542L224.518 9.91769C224.518 8.26102 223.674 6.70036 222.275 5.78797C220.876 4.87558 219.116 4.75554 217.572 5.42782L60.254 75.2031C58.4693 75.9954 57.3357 77.7481 57.3357 79.6929V486.156H50.9442C48.2188 486.156 46 488.365 46 491.078C46 493.791 48.2188 496 50.9442 496H449.056C451.781 496 454 493.791 454 491.078C454 488.365 451.781 486.156 449.056 486.156L449.06 486.149ZM67.1984 421.42L168.856 417.195C171.582 417.074 173.704 414.794 173.584 412.08C173.463 409.367 171.172 407.254 168.446 407.375L67.2021 411.6V382.596L168.977 376.137C171.703 375.969 173.753 373.64 173.584 370.927C173.415 368.214 171.051 366.149 168.35 366.341L67.1985 372.752V343.652L169.196 332.416C171.897 332.127 173.851 329.679 173.561 326.989C173.272 324.3 170.812 322.355 168.111 322.644L67.1999 333.76V304.853L169.265 292.44C171.967 292.104 173.896 289.655 173.558 286.965C173.221 284.276 170.785 282.356 168.06 282.692L67.198 294.961V265.981L169.412 250.375C172.113 249.966 173.946 247.445 173.536 244.78C173.126 242.091 170.618 240.266 167.916 240.675L67.203 256.041V227.085L169.583 207.853C172.26 207.349 174.021 204.78 173.515 202.115C173.008 199.45 170.428 197.697 167.75 198.201L67.2038 217.097V188.213L169.751 165.308C172.404 164.707 174.092 162.09 173.489 159.425C172.886 156.784 170.257 155.104 167.58 155.704L67.2003 178.129V149.101L170.161 116.423C172.766 115.607 174.189 112.846 173.369 110.253C172.549 107.66 169.775 106.243 167.171 107.059L67.2042 138.777V82.9541L214.662 17.549V486.221H67.2042L67.1984 421.42Z" fill="#B26EAC"/>
</svg>
