<svg width="500" height="500" viewBox="0 0 500 500" fill="none" xmlns="http://www.w3.org/2000/svg">
<path d="M84.5569 0.00327989C63.0366 0.00327989 45.3678 16.2917 45.3678 36.1546V65.5676H20.6314C9.33195 65.5676 0 74.1613 0 84.5905V136.149C0 156.773 18.2825 173.647 40.6279 173.647H45.3678V259.6L45.3889 259.58C45.3466 259.99 45.3466 260.4 45.3889 260.791V431.545C45.3889 442.619 54.3606 451.896 65.8935 453.556V474.161C65.8935 488.359 78.5472 500 93.9522 500H153.182C168.566 500 181.304 488.36 181.304 474.161V453.849H318.209V474.161C318.209 488.359 330.863 500 346.268 500H405.498C420.881 500 433.557 488.36 433.557 474.161V453.634C445.343 452.189 454.611 442.794 454.611 431.545L454.59 261.18C454.717 260.399 454.717 259.618 454.59 258.856V173.644H459.33C481.675 173.644 500 156.77 500 136.145V84.5872C500 74.158 490.605 65.5643 479.326 65.5643H454.59V36.1513C454.59 16.2885 437.006 0 415.485 0L84.5569 0.00327989ZM84.5569 15.6278H415.484C427.863 15.6278 437.661 24.729 437.661 36.1546V65.5676H62.3188V36.1546C62.3188 24.729 72.1778 15.6278 84.5569 15.6278ZM20.652 81.1906H45.3884V158.063H40.6484C27.4655 158.063 16.97 148.337 16.97 136.15V84.5915C16.97 82.6189 18.5148 81.1906 20.652 81.1906ZM62.3378 81.1906H437.636V255.855C386.555 285.912 319.561 302.865 250.006 302.865C180.408 302.865 113.415 285.912 62.3161 255.815V165.838L62.3378 81.1906ZM454.586 81.1906H479.323C481.46 81.1906 483.068 82.6163 483.068 84.5889V136.147C483.068 148.315 472.53 158.06 459.326 158.06H454.586L454.586 81.1906ZM62.3378 274.154C115.238 302.864 181.469 318.489 250.028 318.489C318.586 318.489 384.777 302.845 437.658 274.154V431.534C437.658 435.323 434.526 438.213 430.421 438.213L69.5755 438.233C65.4704 438.233 62.3388 435.342 62.3388 431.553L62.3378 274.154ZM142.261 337.237C119.514 337.237 100.893 354.404 100.893 375.419C100.893 396.415 119.492 413.601 142.261 413.601C165.008 413.601 183.671 396.434 183.671 375.419C183.671 354.424 165.008 337.237 142.261 337.237ZM357.756 337.237C335.009 337.237 316.388 354.404 316.388 375.419C316.388 396.415 334.988 413.601 357.756 413.601C380.504 413.601 399.125 396.434 399.125 375.419C399.125 354.424 380.525 337.237 357.756 337.237ZM142.261 352.861C155.867 352.861 166.743 362.861 166.743 375.419C166.743 387.977 155.867 397.977 142.261 397.977C128.655 397.977 117.821 387.977 117.821 375.419C117.821 362.861 128.655 352.861 142.261 352.861ZM357.756 352.861C371.362 352.861 382.197 362.861 382.197 375.419C382.197 387.977 371.362 397.977 357.756 397.977C344.15 397.977 333.316 387.977 333.316 375.419C333.316 362.861 344.15 352.861 357.756 352.861ZM220.851 367.626L220.83 367.646C216.154 367.626 212.345 371.103 212.345 375.419C212.324 377.509 213.213 379.501 214.821 380.966C216.408 382.45 218.566 383.271 220.83 383.271H279.188C281.431 383.251 283.59 382.431 285.177 380.966C286.764 379.482 287.653 377.49 287.631 375.419C287.61 371.123 283.844 367.646 279.188 367.646L220.851 367.626ZM82.825 453.834H164.379V474.145C164.379 479.868 159.448 484.36 153.185 484.36H93.9549C87.6917 484.36 82.8245 479.888 82.8245 474.145L82.825 453.834ZM335.119 453.834H416.651V474.145C416.651 479.868 411.741 484.36 405.478 484.36H346.248C339.985 484.36 335.118 479.888 335.118 474.145L335.119 453.834Z" fill="#A67CA3"/>
</svg>
