<svg width="500" height="500" viewBox="0 0 500 500" fill="none" xmlns="http://www.w3.org/2000/svg">
<path d="M305.757 52.1118H424.495C436.952 52.1118 448.29 57.4605 456.484 66.0584L456.817 66.4333L456.841 66.4583C465.13 75.306 469.798 87.2281 469.798 99.65V449.438H493.902C495.522 449.438 497.07 450.113 498.214 451.312C499.357 452.512 500 454.137 500 455.836V493.602C500 495.301 499.357 496.926 498.214 498.125C497.07 499.325 495.522 500 493.902 500H6.09756C2.73915 500 0 497.151 0 493.602V455.836C0 452.312 2.73915 449.438 6.09756 449.438H30.2018V99.65C30.2018 86.5781 35.299 74.7065 43.4927 66.0833C51.972 57.1608 63.4762 52.1367 75.4811 52.1118H194.219L194.243 30.1921C194.243 21.8941 197.506 14.3459 202.698 8.87266H202.674C208.057 3.19907 215.393 0 223.015 0H276.988C284.896 0 292.066 3.39915 297.282 8.87266L297.401 8.99763C302.546 14.4713 305.737 21.9691 305.737 30.1923L305.757 52.1118ZM424.495 64.9086H305.757V86.8282C305.757 95.1513 302.518 102.699 297.302 108.173L296.921 108.548C291.585 113.971 284.44 117.02 276.985 117.045H223.012C215.08 117.045 207.887 113.646 202.671 108.173C197.264 102.524 194.239 94.8512 194.239 86.8282V64.9086H75.4769C66.4019 64.9086 58.1128 68.8326 52.111 75.1313C45.8946 81.6295 42.3927 90.4523 42.3927 99.65V449.438H153.6V361.383C153.6 357.859 156.315 354.985 159.698 354.985H340.313H340.29C341.909 354.985 343.458 355.659 344.601 356.859C345.744 358.059 346.387 359.683 346.387 361.383V449.438H457.595V99.65C457.595 90.252 453.974 81.6794 448.162 75.4307L447.853 75.1308H447.876C441.684 68.6076 433.276 64.933 424.487 64.9081L424.495 64.9086ZM463.701 462.237H12.1945V487.205H487.804V462.237H463.701ZM165.78 449.44H243.902V367.783H165.798L165.78 449.44ZM256.079 449.44H334.182V367.783H256.103L256.079 449.44ZM99.0177 143.667H154.753C156.373 143.667 157.921 144.341 159.064 145.541C160.208 146.741 160.851 148.365 160.851 150.065V208.575C160.851 210.275 160.208 211.899 159.064 213.099C157.921 214.299 156.373 214.974 154.753 214.974H99.0177C95.6593 214.974 92.9202 212.124 92.9202 208.575V150.065C92.9202 146.541 95.6593 143.667 99.0177 143.667ZM148.656 156.463H105.115V202.177H148.656V156.463ZM222.113 143.667H277.872C279.492 143.667 281.04 144.341 282.183 145.541C283.326 146.741 283.97 148.365 283.97 150.065V208.575C283.97 210.275 283.326 211.899 282.183 213.099C281.04 214.299 279.492 214.974 277.872 214.974H222.137C218.754 214.974 216.039 212.124 216.039 208.575V150.065C216.039 146.541 218.754 143.667 222.137 143.667H222.113ZM271.751 156.463H228.21V202.177H271.751V156.463ZM345.208 143.667H400.991C402.611 143.667 404.159 144.341 405.302 145.541C406.445 146.741 407.088 148.365 407.088 150.065V208.575C407.088 210.275 406.445 211.899 405.302 213.099C404.159 214.299 402.611 214.974 400.991 214.974H345.232C341.873 214.974 339.134 212.124 339.134 208.575V150.065C339.134 146.541 341.873 143.667 345.232 143.667H345.208ZM394.87 156.463H351.306V202.177H394.87V156.463ZM99.0159 257.065H154.751C156.371 257.065 157.919 257.74 159.062 258.94C160.206 260.14 160.849 261.764 160.849 263.464V321.949C160.849 323.649 160.206 325.273 159.062 326.473C157.919 327.673 156.371 328.347 154.751 328.347H99.0159C95.6575 328.347 92.9183 325.473 92.9183 321.949V263.464C92.9183 259.915 95.6575 257.065 99.0159 257.065ZM148.654 269.862H105.113V315.551H148.654V269.862ZM222.111 257.065H277.87C279.49 257.065 281.038 257.74 282.181 258.94C283.325 260.14 283.968 261.764 283.968 263.464V321.949C283.968 323.649 283.325 325.273 282.181 326.473C281.038 327.673 279.49 328.347 277.87 328.347H222.135C218.753 328.347 216.037 325.473 216.037 321.949V263.464C216.037 259.915 218.753 257.065 222.135 257.065H222.111ZM271.749 269.862H228.209V315.551H271.749V269.862ZM345.206 257.065H400.989C402.609 257.065 404.157 257.74 405.3 258.94C406.444 260.14 407.087 261.764 407.087 263.464V321.949C407.087 323.649 406.444 325.273 405.3 326.473C404.157 327.673 402.609 328.347 400.989 328.347H345.23C341.871 328.347 339.132 325.473 339.132 321.949V263.464C339.132 259.915 341.871 257.065 345.23 257.065H345.206ZM394.868 269.862H351.304V315.551H394.868V269.862ZM224.136 415.029H224.16C220.801 415.029 218.062 412.155 218.062 408.631C218.062 405.082 220.801 402.232 224.16 402.232H224.255C227.614 402.232 230.353 405.082 230.353 408.631C230.353 412.155 227.614 415.029 224.255 415.029H224.136ZM275.823 402.232H275.846C279.205 402.232 281.944 405.082 281.944 408.631C281.944 412.155 279.205 415.029 275.846 415.029H275.751C272.393 415.029 269.654 412.155 269.654 408.631C269.654 405.082 272.393 402.232 275.751 402.232H275.823ZM276.966 12.832H222.993C218.443 12.832 214.275 14.8065 211.274 17.9557H211.25L211.274 17.9307C208.177 21.2049 206.415 25.6037 206.439 30.2278V86.8639C206.439 91.6377 208.296 96.0117 211.321 99.161C214.323 102.31 218.467 104.285 223.04 104.285H277.014C281.444 104.285 285.493 102.435 288.446 99.4359L288.708 99.161C291.71 96.0118 293.591 91.6627 293.591 86.8639L293.567 30.2029C293.567 25.604 291.829 21.1798 288.708 17.9058C285.588 14.6316 281.372 12.807 276.99 12.807L276.966 12.832ZM243.906 33.527C243.906 30.0029 246.645 27.1286 250.003 27.1286C253.362 27.1286 256.101 30.0029 256.101 33.527V52.122H273.798C277.18 52.122 279.895 54.9963 279.895 58.5204C279.895 62.0696 277.18 64.9188 273.798 64.9188H256.101V83.5139C256.101 87.038 253.362 89.9123 250.003 89.9123C246.645 89.9123 243.906 87.038 243.906 83.5139V64.9438H226.185V64.9188C222.826 64.9188 220.087 62.0695 220.087 58.5204C220.087 54.9963 222.826 52.122 226.185 52.122H243.906V33.527Z" fill="#A67CA3"/>
</svg>
