<svg width="500" height="500" viewBox="0 0 500 500" fill="none" xmlns="http://www.w3.org/2000/svg">
<path d="M490.691 166.021L278.28 8.49943C262.954 -2.83314 243.907 -2.83314 228.665 8.49943L16.2532 166.021C10.4648 170.312 6.93667 177.856 6.93667 186.205C6.93667 194.52 10.3822 201.997 16.2532 206.289L33.9768 219.431V294.703C21.6281 298.559 12.4491 312.037 12.4491 328.266C12.4491 344.393 21.6281 357.871 33.8942 361.828C33.4807 366.556 31.9923 372.825 27.8853 378.391C20.0569 388.953 8.83865 388.248 7.57062 388.181C3.6841 387.746 0.294065 391.367 0.0181602 396.094C-0.257484 400.822 2.63672 404.945 6.5233 405.281C7.01945 405.382 7.79127 405.382 8.83865 405.382C14.6271 405.382 28.1061 403.739 38.4148 389.858C45.5538 380.235 47.5938 369.439 48.0898 361.795C60.4385 357.939 69.6175 344.461 69.6175 328.232C69.6175 312.004 60.4385 298.526 48.0898 294.669V229.858L89.2152 260.336V400.588C89.2152 416.882 95.7755 432.172 106.774 441.626C137.976 468.315 188.691 500 253.469 500H254.186C318.74 499.732 369.212 468.08 400.189 441.626C411.188 432.272 417.693 416.916 417.693 400.588L417.72 260.439L490.683 206.357C496.472 202.066 500 194.522 500 186.274C500 177.858 496.554 170.381 490.683 166.022L490.691 166.021ZM55.4529 328.229C55.4529 337.918 48.9477 345.831 40.9816 345.831C33.0155 345.831 26.5104 337.918 26.5104 328.229C26.5104 318.539 33.0155 310.626 40.9816 310.626C48.9751 310.626 55.4529 318.539 55.4529 328.229ZM403.615 400.583C403.615 411.313 399.315 421.371 392.121 427.54C362.765 452.62 315.051 482.561 254.162 482.829H253.445C192.335 482.829 144.346 452.787 114.85 427.54C107.656 421.371 103.274 411.246 103.274 400.583V270.795L228.609 363.735C236.217 369.402 244.845 372.218 253.444 372.218C262.044 372.218 270.589 369.402 278.279 363.735L403.615 270.864L403.615 400.583ZM483.36 191.597L270.948 349.118C260.143 357.098 246.802 357.098 236.025 349.118L62.4232 220.368L254.294 194.718C258.18 194.215 260.936 189.991 260.495 185.263C260.082 180.535 256.554 177.182 252.722 177.719L42.6534 205.883L23.6068 191.734C21.3465 190.024 21.0708 187.342 21.0708 186.235C21.0708 185.129 21.2914 182.446 23.6068 180.736L236.018 23.2151C241.393 19.1917 247.457 17.2135 253.522 17.2135C259.586 17.2135 265.594 19.1917 271.025 23.2151L483.437 180.736C485.697 182.446 485.972 185.129 485.972 186.235C485.89 187.207 485.62 189.954 483.36 191.597Z" fill="#A67CA3"/>
<path d="M253.448 207.726C243.635 207.726 235.724 198.037 235.724 186.168C235.724 174.232 243.69 164.609 253.448 164.609C263.26 164.609 271.171 174.299 271.171 186.168C271.171 198.037 263.26 207.726 253.448 207.726ZM253.448 181.709C251.463 181.709 249.837 183.687 249.837 186.101C249.837 188.515 251.463 190.493 253.448 190.493C255.432 190.46 257.059 188.582 257.059 186.168C257.059 183.787 255.432 181.709 253.448 181.709Z" fill="#A67CA3"/>
</svg>
