<svg width="500" height="500" viewBox="0 0 500 500" fill="none" xmlns="http://www.w3.org/2000/svg">
<path d="M332.657 476.165H480.73C484.787 476.165 488.337 472.373 488.337 468.039V199.35C488.337 195.016 484.787 191.224 480.73 191.224H332.657V165.222C332.657 162.513 331.136 159.805 328.6 158.18L251.014 112.134C248.479 110.509 245.943 110.509 243.408 112.134L165.821 158.18C165.821 158.18 165.821 158.18 165.314 158.721C165.314 158.721 165.314 158.721 164.807 158.721C164.3 158.721 164.3 159.263 163.793 159.263C164.3 160.347 163.793 160.347 163.793 160.888C163.793 161.43 163.286 161.43 163.286 161.972C163.286 162.513 162.779 163.055 162.779 163.055C162.779 163.597 162.779 164.139 162.779 164.68V190.682H19.7769C15.7201 190.682 12.1704 194.474 12.1704 198.808V467.497C12.1704 471.831 15.7201 475.623 19.7769 475.623H162.272V483.749H0V500H169.878H325.051H500V483.749H332.657V476.165ZM177.485 484.29V468.039C177.485 463.705 173.935 459.913 169.878 459.913H27.3834V207.476H169.878C173.935 207.476 177.485 203.684 177.485 199.35V170.097L247.464 128.386L317.444 170.097V199.35C317.444 203.684 320.994 207.476 325.051 207.476H473.124V459.913H325.051C320.994 459.913 317.444 463.705 317.444 468.039V484.29H177.485Z" fill="#A67CA3"/>
<path d="M358.012 167.389V148.429L254.564 86.6739C255.071 85.5905 255.071 85.0488 255.071 83.9653V60.13H315.923C319.98 60.13 323.53 56.338 323.53 52.0043V8.12568C323.53 3.79198 319.98 0 315.923 0H246.958C246.958 0 246.958 0 246.45 0C245.943 0 245.943 0 245.436 0C241.887 0.541712 239.351 3.79198 239.351 8.12568L239.858 83.9653C239.858 85.0488 239.858 86.1322 240.365 86.6739L135.903 148.971V167.931L247.465 101.842L358.012 167.389ZM254.564 16.2514H307.81V43.8787H254.564V16.2514Z" fill="#A67CA3"/>
<path d="M89.756 223.727H47.6668C43.61 223.727 40.0603 227.519 40.0603 231.853V299.567C40.0603 303.901 43.61 307.693 47.6668 307.693H89.756C93.8128 307.693 97.3625 303.901 97.3625 299.567V231.853C97.3625 226.978 93.8128 223.727 89.756 223.727ZM82.1495 291.441H55.2733V239.979H82.1495V291.441Z" fill="#A67CA3"/>
<path d="M164.807 223.727H122.718C118.661 223.727 115.111 227.519 115.111 231.853V299.567C115.111 303.901 118.661 307.693 122.718 307.693H164.807C168.864 307.693 172.414 303.901 172.414 299.567V231.853C172.414 226.978 168.864 223.727 164.807 223.727ZM157.201 291.441H130.324V239.979H157.201V291.441Z" fill="#A67CA3"/>
<path d="M89.756 320.152H47.6668C43.61 320.152 40.0603 323.944 40.0603 328.277V395.991C40.0603 400.325 43.61 404.117 47.6668 404.117H89.756C93.8128 404.117 97.3625 400.325 97.3625 395.991V328.277C97.3625 323.944 93.8128 320.152 89.756 320.152ZM82.1495 387.866H55.2733V336.403H82.1495V387.866Z" fill="#A67CA3"/>
<path d="M164.807 320.152H122.718C118.661 320.152 115.111 323.944 115.111 328.277V395.991C115.111 400.325 118.661 404.117 122.718 404.117H164.807C168.864 404.117 172.414 400.325 172.414 395.991V328.277C172.414 323.944 168.864 320.152 164.807 320.152ZM157.201 387.866H130.324V336.403H157.201V387.866Z" fill="#A67CA3"/>
<path d="M335.193 307.693H377.282C381.339 307.693 384.889 303.901 384.889 299.567V231.853C384.889 227.519 381.339 223.727 377.282 223.727H335.193C331.136 223.727 327.587 227.519 327.587 231.853V299.567C327.587 303.901 330.629 307.693 335.193 307.693ZM342.8 239.979H369.676V291.441H342.8V239.979Z" fill="#A67CA3"/>
<path d="M410.243 307.693H452.332C456.389 307.693 459.939 303.901 459.939 299.567V231.853C459.939 227.519 456.389 223.727 452.332 223.727H410.243C406.186 223.727 402.636 227.519 402.636 231.853V299.567C402.636 303.901 406.186 307.693 410.243 307.693ZM417.849 239.979H444.726V291.441H417.849V239.979Z" fill="#A67CA3"/>
<path d="M335.193 404.117H377.282C381.339 404.117 384.889 400.325 384.889 395.991V328.277C384.889 323.944 381.339 320.152 377.282 320.152H335.193C331.136 320.152 327.587 323.944 327.587 328.277V395.991C327.587 400.325 330.629 404.117 335.193 404.117ZM342.8 336.403H369.676V387.866H342.8V336.403Z" fill="#A67CA3"/>
<path d="M410.243 404.117H452.332C456.389 404.117 459.939 400.325 459.939 395.991V328.277C459.939 323.944 456.389 320.152 452.332 320.152H410.243C406.186 320.152 402.636 323.944 402.636 328.277V395.991C402.636 400.325 406.186 404.117 410.243 404.117ZM417.849 336.403H444.726V387.866H417.849V336.403Z" fill="#A67CA3"/>
<path d="M250.001 159.805C221.603 159.805 198.276 184.724 198.276 215.06C198.276 245.395 221.603 270.314 250.001 270.314C278.398 270.314 301.725 245.395 301.725 215.06C301.725 184.724 278.398 159.805 250.001 159.805ZM250.001 254.063C229.717 254.063 213.489 236.728 213.489 215.06C213.489 193.391 229.717 176.056 250.001 176.056C270.284 176.056 286.512 193.391 286.512 215.06C286.512 236.728 270.284 254.063 250.001 254.063Z" fill="#A67CA3"/>
<path d="M250 183.64C245.943 183.64 242.393 187.432 242.393 191.766V206.934H228.195C224.138 206.934 220.588 210.726 220.588 215.06C220.588 219.393 224.138 223.185 228.195 223.185H250C254.057 223.185 257.606 219.393 257.606 215.06V191.766C257.606 187.432 254.057 183.64 250 183.64Z" fill="#A67CA3"/>
<path d="M249.999 325.569C223.63 325.569 202.332 348.321 202.332 376.49V468.039C202.332 472.373 205.882 476.165 209.939 476.165H290.06C294.117 476.165 297.667 472.373 297.667 468.039V376.49C297.667 348.321 276.369 325.569 249.999 325.569ZM282.454 459.913H217.545V376.49C217.545 357.53 232.251 341.82 249.999 341.82C267.748 341.82 282.454 357.53 282.454 376.49V459.913Z" fill="#A67CA3"/>
</svg>
