<svg width="500" height="500" viewBox="0 0 500 500" fill="none" xmlns="http://www.w3.org/2000/svg">
<path d="M250 472.801C245.275 472.801 241.455 467.731 241.455 461.495C241.455 432.582 218.325 426.327 217.34 426.075L33.5403 387.22C29.3903 386.346 26.3403 381.613 26.3403 376.053V11.3147C26.3403 8.01163 27.4303 4.88068 29.3253 2.7294C31.2153 0.578118 33.7153 -0.375067 36.1803 0.134622L196.355 32.6488C256.81 46.973 258.545 84.6304 258.545 88.88V461.495C258.545 467.737 254.715 472.801 250 472.801ZM43.4303 366.402L220.32 403.795C226.19 405.297 234.245 409.289 241.46 416.477V88.88C241.42 88.88 238.955 65.7123 193.57 54.9625L43.4303 24.4938V366.402Z" fill="#A67CA3"/>
<path d="M250 499.999H227.155C222.44 499.999 218.61 494.929 218.61 488.687C218.61 463.169 185.83 462.309 185.505 462.309C185.14 462.295 184.775 462.256 184.42 462.19L7.37 429.669C3.145 428.894 0 424.115 0 418.476V45.2446C0 38.9959 3.83 33.9321 8.545 33.9321C13.255 33.9321 17.085 38.9959 17.085 45.2446V408.613L186.23 439.684C201.8 440.074 228.97 448.633 234.64 477.368H250C254.715 477.368 258.545 482.438 258.545 488.68C258.545 494.922 254.715 499.999 250 499.999Z" fill="#A67CA3"/>
<path d="M250 472.802C245.275 472.802 241.455 467.731 241.455 461.496V88.8806C241.455 84.631 243.195 46.9737 303.43 32.6958L463.825 0.141888C466.28 -0.361181 468.79 0.585384 470.68 2.73667C472.575 4.88795 473.665 8.01889 473.665 11.3219V376.067C473.665 381.627 470.615 386.36 466.465 387.234L282.385 426.155C281.72 426.334 258.55 432.927 258.55 461.509C258.545 467.738 254.715 472.802 250 472.802ZM456.57 24.4944L306.22 55.0095C260.78 65.7792 258.545 89.1454 258.535 89.3771L258.545 416.452C265.695 409.289 273.665 405.331 279.41 403.862L456.575 366.403L456.57 24.4944Z" fill="#A67CA3"/>
<path d="M272.845 499.999H250C245.275 499.999 241.455 494.929 241.455 488.687C241.455 482.445 245.275 477.374 250 477.374H265.36C271.02 448.633 298.185 440.074 313.76 439.69L482.915 408.619V45.2446C482.915 38.9959 486.745 33.9321 491.455 33.9321C496.17 33.9321 500 38.9959 500 45.2446V418.476C500 424.115 496.855 428.894 492.63 429.662L315.58 462.183C315.22 462.249 314.85 462.289 314.485 462.302C314.16 462.302 281.39 463.163 281.39 488.68C281.39 494.929 277.565 499.999 272.845 499.999Z" fill="#A67CA3"/>
</svg>
