<svg width="350" height="500" viewBox="0 0 350 500" fill="none" xmlns="http://www.w3.org/2000/svg">
<path d="M175 0C78.5085 0 0 73.22 0 163.212C0 218.717 64.9081 314.468 114.253 379.254H77.4058C66.2765 379.254 56.2814 385.017 51.3077 394.302L15.873 460.812C11.3673 469.26 11.8671 479.1 17.2057 487.135C22.5602 495.191 31.8175 500 41.9711 500H308.029C318.183 500 327.44 495.191 332.794 487.135C338.133 479.1 338.633 469.26 334.127 460.812L298.684 394.287C293.719 385.017 283.724 379.254 272.594 379.254H235.747C285.092 314.468 350 218.717 350 163.212C350 73.22 271.492 0 175 0ZM272.594 394.405C277.528 394.405 281.955 396.958 284.144 401.049L319.579 467.559C321.594 471.332 321.371 475.556 318.984 479.152C316.58 482.77 312.582 484.848 308.029 484.848H41.9711C37.4178 484.848 33.4198 482.77 31.0163 479.152C28.6286 475.556 28.4065 471.332 30.4213 467.559L65.8481 401.064C68.0454 396.958 72.4718 394.405 77.4058 394.405H125.93C148.949 423.889 166.508 444.292 168.678 446.8C170.217 448.582 172.541 449.618 175 449.618C177.459 449.618 179.783 448.582 181.322 446.8C183.492 444.292 201.05 423.889 224.07 394.405H272.594ZM175 429.821C144.721 393.717 16.2459 236.188 16.2459 163.212C16.2459 81.5726 87.4643 15.1515 175 15.1515C262.536 15.1515 333.754 81.5726 333.754 163.212C333.754 236.188 205.279 393.717 175 429.821Z" fill="#A67CA3"/>
<path d="M175 52.4531C109.517 52.4531 56.2417 102.139 56.2417 163.212C56.2417 224.284 109.517 273.97 175 273.97C240.483 273.97 293.758 224.284 293.758 163.212C293.758 102.139 240.483 52.4531 175 52.4531ZM175 258.819C118.473 258.819 72.4876 215.931 72.4876 163.212C72.4876 110.492 118.473 67.6046 175 67.6046C231.527 67.6046 277.512 110.492 277.512 163.212C277.512 215.931 231.527 258.819 175 258.819Z" fill="#A67CA3"/>
</svg>
