<svg width="500" height="500" viewBox="0 0 500 500" fill="none" xmlns="http://www.w3.org/2000/svg">
<path d="M258.845 110V242.98H298.956V249.093H258.845V255.248C258.845 256.058 258.523 256.836 257.949 257.409C257.376 257.982 256.598 258.304 255.787 258.304H210.94V332.107H131.435V325.994H204.824V258.304H110V389.29H284.019V341.491C284.019 340.681 284.341 339.903 284.915 339.33C285.488 338.757 286.266 338.435 287.077 338.435H341.552C342.363 338.435 343.14 338.757 343.714 339.33C344.287 339.903 344.609 340.681 344.609 341.491V389.29H390V307.333V255.248V249.093H329.535V242.98H390V157.399H321.98V123.778H328.096V151.286H390V110H258.845ZM290.135 344.548V389.29H338.494V344.548H290.135Z" fill="black"/>
</svg>
