<svg width="500" height="500" viewBox="0 0 500 500" fill="none" xmlns="http://www.w3.org/2000/svg">
<g clip-path="url(#clip0_84_33)">
<rect width="500" height="500" fill="white"/>
<path fill-rule="evenodd" clip-rule="evenodd" d="M444.444 500H55.5556C24.875 500 0 475.125 0 444.444V55.5556C0 24.875 24.875 0 55.5556 0H444.444C475.125 0 500 24.875 500 55.5556V444.444C500 475.125 475.125 500 444.444 500Z" fill="#212121"/>
<path fill-rule="evenodd" clip-rule="evenodd" d="M392.459 388.889H303.056L108.736 111.111H198.139L392.459 388.889ZM313.709 365.334H349.306L187.486 134.667H151.889L313.709 365.334Z" fill="white"/>
<path fill-rule="evenodd" clip-rule="evenodd" d="M137.028 388.889L237.07 273.001L223.987 255.653L108.653 388.889H137.028Z" fill="white"/>
<path fill-rule="evenodd" clip-rule="evenodd" d="M256.25 218.347L268.819 236.25L376.889 111.111H349.111L256.25 218.347Z" fill="white"/>
</g>
<defs>
<clipPath id="clip0_84_33">
<rect width="500" height="500" fill="white"/>
</clipPath>
</defs>
</svg>
